<svg width="100" height="20" viewBox="0 0 100 20" fill="none" xmlns="http://www.w3.org/2000/svg">
<g clip-path="url(#clip0_1839_84921)">
<path d="M16.9555 15.4654H13.4105L8.47778 0H12.0228L16.9555 15.4654Z" fill="#191B1F"/>
<path d="M0 15.4654H3.54504L8.47773 0H4.93269L0 15.4654Z" fill="#5D45FF"/>
<path d="M59.2496 3.1543C55.4009 3.1543 52.2814 5.97553 52.2814 9.45551C52.2814 12.9355 55.4014 15.7567 59.2496 15.7567C63.0978 15.7567 66.2178 12.9355 66.2178 9.45551C66.2178 5.97553 63.0978 3.1543 59.2496 3.1543ZM59.2496 12.9888C57.0918 12.9888 55.3428 11.4071 55.3428 9.45594C55.3428 7.50481 57.0918 5.92311 59.2496 5.92311C61.4074 5.92311 63.1564 7.50481 63.1564 9.45594C63.1564 11.4071 61.4074 12.9888 59.2496 12.9888Z" fill="#191B1F"/>
<path d="M51.436 0H48.2279V15.4654H51.436V0Z" fill="#191B1F"/>
<path d="M74.2795 3.27979C72.5745 3.27979 71.0979 4.25428 70.3799 5.67491V3.27979H67.1719V15.4659H70.3799V10.2713C70.3799 7.86977 72.3338 5.9229 74.7439 5.9229H76.3406V3.27979H74.2795Z" fill="#191B1F"/>
<path d="M97.9388 3.27979C96.2338 3.27979 94.7572 4.25428 94.0392 5.67491V3.27979H90.8312V15.4659H94.0392V10.2713C94.0392 7.86977 95.9931 5.9229 98.4032 5.9229H99.9999V3.27979H97.9388Z" fill="#191B1F"/>
<path d="M89.0253 9.8684H89.9734C89.9832 9.73205 89.9888 9.59442 89.9888 9.45551C89.9888 5.97553 86.8688 3.1543 83.0206 3.1543C79.1723 3.1543 76.0524 5.97553 76.0524 9.45551C76.0524 12.9355 79.1723 15.7567 83.0206 15.7567C86.2265 15.7567 88.9261 13.7988 89.7386 11.1335H86.5211C85.8557 12.2665 84.5378 13.0378 83.0206 13.0378C80.9872 13.0378 79.3118 11.6521 79.0851 9.86798H89.0253V9.8684ZM83.0201 5.87326C84.5284 5.87326 85.8399 6.63556 86.5087 7.75706H79.5311C80.2004 6.63556 81.5115 5.87326 83.0197 5.87326H83.0201Z" fill="#191B1F"/>
<path d="M25.0415 0.000852206V0H17.3887V15.4654H25.0415V15.4646C28.9633 15.4207 32.129 12.2402 32.129 8.32179V7.14362C32.129 3.2256 28.9633 0.0447408 25.0415 0.000852206ZM29.0385 7.92637C29.0385 10.4613 26.9761 12.5164 24.4321 12.5164H20.5967V2.94906H24.4321C26.9761 2.94906 29.0385 5.00415 29.0385 7.53904V7.9268V7.92637Z" fill="#191B1F"/>
<path d="M40.7816 3.1543C39.1943 3.1543 37.7416 3.71547 36.6182 4.64566V3.30769H33.4102V19.9994H36.6182V14.2654C37.7412 15.1955 39.1943 15.7567 40.7816 15.7567C44.3412 15.7567 47.2268 12.9355 47.2268 9.45551C47.2268 5.97553 44.3412 3.1543 40.7816 3.1543ZM44.248 9.47681C44.248 11.4646 42.4579 13.0761 40.2501 13.0761C38.0422 13.0761 36.2522 11.4646 36.2522 9.47681C36.2522 7.48904 38.0422 5.87795 40.2501 5.87795C41.9405 5.87795 43.3863 6.82262 43.9709 8.1576C44.1496 8.55941 44.248 8.99745 44.248 9.45594C44.248 9.45934 44.248 9.46275 44.248 9.46659C44.248 9.47 44.248 9.47383 44.248 9.47724V9.47681Z" fill="#191B1F"/>
</g>
<defs>
<clipPath id="clip0_1839_84921">
<rect width="100" height="20" fill="white"/>
</clipPath>
</defs>
</svg>
