<svg width="140" height="29" viewBox="0 0 140 29" fill="none" xmlns="http://www.w3.org/2000/svg">
<g clip-path="url(#clip0_1739_186489)">
<path d="M23.7377 22.3183H18.7747L11.8689 0.666687H16.8319L23.7377 22.3183Z" fill="#F0F0F0"/>
<path d="M0 22.3183H4.96305L11.8688 0.666687H6.90577L0 22.3183Z" fill="#5D45FF"/>
<path d="M82.9493 5.08292C77.5612 5.08292 73.1938 9.03264 73.1938 13.9046C73.1938 18.7766 77.5618 22.7263 82.9493 22.7263C88.3369 22.7263 92.7048 18.7766 92.7048 13.9046C92.7048 9.03264 88.3369 5.08292 82.9493 5.08292ZM82.9493 18.8512C79.9284 18.8512 77.4798 16.6368 77.4798 13.9052C77.4798 11.1736 79.9284 8.95926 82.9493 8.95926C85.9703 8.95926 88.4189 11.1736 88.4189 13.9052C88.4189 16.6368 85.9703 18.8512 82.9493 18.8512Z" fill="#F0F0F0"/>
<path d="M72.0103 0.666687H67.519V22.3183H72.0103V0.666687Z" fill="#F0F0F0"/>
<path d="M103.991 5.2583C101.604 5.2583 99.537 6.6226 98.5318 8.61148V5.2583H94.0405V22.3189H98.5318V15.0464C98.5318 11.6843 101.267 8.95867 104.641 8.95867H106.877V5.2583H103.991Z" fill="#F0F0F0"/>
<path d="M137.114 5.2583C134.728 5.2583 132.66 6.6226 131.655 8.61148V5.2583H127.164V22.3189H131.655V15.0464C131.655 11.6843 134.39 8.95867 137.765 8.95867H140V5.2583H137.114Z" fill="#F0F0F0"/>
<path d="M124.636 14.4827H125.963C125.977 14.2918 125.984 14.0991 125.984 13.9046C125.984 9.03264 121.616 5.08292 116.229 5.08292C110.841 5.08292 106.473 9.03264 106.473 13.9046C106.473 18.7766 110.841 22.7263 116.229 22.7263C120.717 22.7263 124.497 19.9852 125.634 16.2538H121.13C120.198 17.84 118.353 18.9198 116.229 18.9198C113.382 18.9198 111.037 16.9798 110.719 14.4821H124.636V14.4827ZM116.228 8.88947C118.34 8.88947 120.176 9.95668 121.112 11.5268H111.344C112.281 9.95668 114.116 8.88947 116.228 8.88947H116.228Z" fill="#F0F0F0"/>
<path d="M35.058 0.66788V0.666687H24.344V22.3183H35.058V22.3171C40.5485 22.2556 44.9805 17.803 44.9805 12.3172V10.6678C44.9805 5.18253 40.5485 0.729324 35.058 0.66788ZM40.6538 11.7636C40.6538 15.3124 37.7664 18.1896 34.2048 18.1896H28.8353V4.79537H34.2048C37.7664 4.79537 40.6538 7.6725 40.6538 11.2213V11.7642V11.7636Z" fill="#F0F0F0"/>
<path d="M57.0942 5.08292C54.8719 5.08292 52.8382 5.86857 51.2655 7.17082V5.29767H46.7742V28.6661H51.2655V20.6384C52.8376 21.9407 54.8719 22.7263 57.0942 22.7263C62.0776 22.7263 66.1175 18.7766 66.1175 13.9046C66.1175 9.03264 62.0776 5.08292 57.0942 5.08292ZM61.9471 13.9344C61.9471 16.7173 59.441 18.9735 56.35 18.9735C53.2591 18.9735 50.753 16.7173 50.753 13.9344C50.753 11.1516 53.2591 8.89543 56.35 8.89543C58.7166 8.89543 60.7408 10.218 61.5592 12.0869C61.8094 12.6495 61.9471 13.2627 61.9471 13.9046C61.9471 13.9094 61.9471 13.9142 61.9471 13.9195C61.9471 13.9243 61.9471 13.9297 61.9471 13.9344Z" fill="#F0F0F0"/>
</g>
<defs>
<clipPath id="clip0_1739_186489">
<rect width="140" height="28" fill="white" transform="translate(0 0.666687)"/>
</clipPath>
</defs>
</svg>
