<svg width="100" height="46" viewBox="0 0 100 46" fill="none" xmlns="http://www.w3.org/2000/svg">
<path d="M6.69935 0H0V4.37315H4.64236H7.79389C10.5491 4.37315 11.9079 6.69071 11.9079 10.2577C11.9079 13.8248 10.5491 16.1424 7.79389 16.1424H4.77446V16.223H0V20.5155H6.69935C13.3043 20.4953 16.3238 16.5857 16.3426 10.2577C16.3238 3.94994 13.3043 0.0201527 6.69935 0Z" fill="#EFEFEF"/>
<path d="M32.6859 4.37315H22.3255V8.10141H32.1763V12.3536H22.3255V16.1424H28.6096C30.5345 16.1424 31.5725 16.0013 32.818 15.8401V20.1326C31.6479 20.4349 29.5155 20.5155 27.9869 20.5155H17.6831V0H32.6859V4.37315Z" fill="#EFEFEF"/>
<path d="M33.4771 0H39.1951L42.5354 6.36827L45.8945 0H51.5559L45.8379 10.2577L51.7635 20.5155H46.0643L42.5165 14.1472L38.9309 20.5155H33.2129L38.8743 10.2577L33.4393 0H33.4771Z" fill="#EFEFEF"/>
<path d="M51.5376 0H66.5026V4.53437H61.313V20.5155H56.5951V4.53437H51.5376V0Z" fill="#EFEFEF"/>
<path d="M96.7162 12.5552C98.7543 11.4266 99.9809 9.33072 99.9809 6.91239C99.9809 2.35787 97.0747 0 91.6964 0H84.2044V4.43361H88.8845H92.489C94.3761 4.43361 95.3952 5.32033 95.3952 6.81163C95.3952 8.16187 94.4327 9.27027 92.4323 9.27027H90.0168V9.31057H84.1855V13.6636H88.8657H92.0927L94.8668 20.5558H99.9998L96.6973 12.5955L96.7162 12.5552Z" fill="#EFEFEF"/>
<path d="M79.3735 9.61286L83.6573 10.3988C83.5252 12.8978 82.2985 15.1549 79.8452 17.15C75.2784 20.8782 70.0887 20.2132 67.0693 15.9811C64.0499 11.749 64.8991 6.22719 68.9753 2.90199C72.6741 -0.120924 77.6184 -0.0806192 80.9586 4.51421L73.1648 13.9457C74.4858 14.6913 75.8634 14.4294 77.2976 13.2605C78.562 12.2327 79.1093 11.1646 79.3735 9.61286ZM70.9945 11.7087L75.4105 6.32796C74.2593 5.40093 72.7873 5.38078 71.523 6.40857C69.9755 7.65804 69.7113 9.5927 70.9945 11.7087Z" fill="#F1F1F1"/>
<path d="M7.90878 39.5801L6.28584 41.3938V45.6259H0.775391V21.9666H6.28584V34.3806L11.9095 28.355H18.439L11.9095 35.751L18.9863 45.6259H12.3247L7.90878 39.5599V39.5801Z" fill="#F1F1F1"/>
<path d="M31.1396 28.073V33.5344C30.649 33.4739 30.2904 33.4336 29.8941 33.4336C27.6673 33.4336 26.1198 34.6831 26.1198 37.706V45.6462H20.6094V28.3551H25.8556V30.4308C26.9879 28.8589 28.8184 28.073 31.1396 28.073Z" fill="#F1F1F1"/>
<path d="M45.9725 36.3155L50.1431 37.0813C50.0299 39.4997 48.8221 41.6963 46.4443 43.631C41.9907 47.2585 36.9709 46.5934 34.0269 42.5024C31.083 38.4114 31.9133 33.0306 35.8763 29.786C39.4619 26.8437 44.2741 26.884 47.52 31.3579L39.9526 40.5073C41.2358 41.2328 42.5757 40.9708 43.9722 39.8423C45.1988 38.8548 45.7272 37.8068 45.9914 36.2954L45.9725 36.3155ZM37.839 38.351L42.1228 33.1314C41.0094 32.2447 39.5563 32.2044 38.3485 33.212C36.8577 34.4413 36.5746 36.2954 37.839 38.3711V38.351Z" fill="#F1F1F1"/>
<path d="M78.714 35.7511V45.626H73.2036V36.7386C73.2036 34.2598 72.2789 33.1917 70.8258 33.1917C69.2217 33.1917 68.0706 34.3807 68.0706 37.0409V45.626H62.5601V36.7386C62.5601 34.2598 61.6543 33.1917 60.1823 33.1917C58.5594 33.1917 57.3894 34.3807 57.3894 37.0409V45.626H51.8789V28.3349H57.1252V30.1487C58.314 28.738 59.9747 28.0528 61.8241 28.0528C63.9755 28.0528 65.806 28.9193 66.9005 30.7734C68.146 29.0604 70.0898 28.0528 72.3544 28.0528C76.0154 28.0528 78.6952 30.3905 78.6952 35.731L78.714 35.7511Z" fill="#F1F1F1"/>
<path d="M99.0572 28.3552V45.6463H93.811V43.9333C92.773 45.3037 91.2256 45.9486 89.1686 45.9486C84.9037 45.9486 81.4502 42.5024 81.4502 36.9806C81.4502 31.4587 84.9037 28.0932 89.1686 28.0932C90.9991 28.0932 92.4711 28.6575 93.5468 29.8868V28.3955H99.0572V28.3552ZM93.6411 36.9604C93.6411 34.3406 92.188 32.8896 90.3386 32.8896C88.4892 32.8896 87.0361 34.3607 87.0361 36.9604C87.0361 39.5601 88.4892 41.1119 90.3386 41.1119C92.188 41.1119 93.6411 39.6206 93.6411 36.9604Z" fill="#F1F1F1"/>
</svg>
