<svg width="100" height="46" viewBox="0 0 100 46" fill="none" xmlns="http://www.w3.org/2000/svg">
<path d="M6.69935 0.227173H0V4.54552H4.64236H7.79389C10.5491 4.54552 11.9079 6.83404 11.9079 10.3564C11.9079 13.8787 10.5491 16.1672 7.79389 16.1672H4.77446V16.2468H0V20.4856H6.69935C13.3043 20.4657 16.3238 16.605 16.3426 10.3564C16.3238 4.12761 13.3043 0.247073 6.69935 0.227173Z" fill="#EFEFEF"/>
<path d="M32.6854 4.54552H22.325V8.22706H32.1758V12.426H22.325V16.1672H28.6092C30.534 16.1672 31.572 16.0279 32.8175 15.8687V20.1075C31.6475 20.406 29.515 20.4856 27.9864 20.4856H17.6826V0.227173H32.6854V4.54552Z" fill="#EFEFEF"/>
<path d="M33.4771 0.227173H39.1951L42.5354 6.51564L45.8945 0.227173H51.5559L45.8379 10.3564L51.7635 20.4856H46.0643L42.5165 14.1971L38.9309 20.4856H33.2129L38.8743 10.3564L33.4393 0.227173H33.4771Z" fill="#EFEFEF"/>
<path d="M51.5371 0.227173H66.5021V4.70472H61.3125V20.4856H56.5946V4.70472H51.5371V0.227173Z" fill="#EFEFEF"/>
<path d="M96.7162 12.625C98.7543 11.5106 99.9809 9.44097 99.9809 7.05295C99.9809 2.5555 97.0747 0.227173 91.6964 0.227173H84.2044V4.60522H88.8845H92.489C94.3761 4.60522 95.3952 5.48083 95.3952 6.95345C95.3952 8.28676 94.4327 9.38127 92.4323 9.38127H90.0168V9.42107H84.1855V13.7195H88.8657H92.0927L94.8668 20.5254H99.9998L96.6973 12.6648L96.7162 12.625Z" fill="#EFEFEF"/>
<path d="M79.3735 9.71959L83.6573 10.4957C83.5252 12.9633 82.2985 15.1922 79.8452 17.1623C75.2784 20.8438 70.0887 20.1871 67.0693 16.0081C64.0499 11.829 64.8991 6.37635 68.9753 3.09282C72.6741 0.107786 77.6184 0.147586 80.9586 4.68484L73.1648 13.9981C74.4858 14.7344 75.8634 14.4757 77.2976 13.3215C78.562 12.3066 79.1093 11.2519 79.3735 9.71959ZM70.9945 11.7892L75.4105 6.47586C74.2593 5.56045 72.7873 5.54054 71.523 6.55546C69.9755 7.78927 69.7113 9.69969 70.9945 11.7892Z" fill="#F1F1F1"/>
<path d="M7.90878 39.3112L6.28584 41.1023V45.2813H0.775391V21.9185H6.28584V34.177L11.9095 28.2268H18.439L11.9095 35.5302L18.9863 45.2813H12.3247L7.90878 39.2913V39.3112Z" fill="#F1F1F1"/>
<path d="M31.1396 27.9485V33.3414C30.649 33.2817 30.2904 33.2419 29.8941 33.2419C27.6673 33.2419 26.1198 34.4758 26.1198 37.4608V45.3015H20.6094V28.2271H25.8556V30.2768C26.9879 28.7246 28.8184 27.9485 31.1396 27.9485Z" fill="#F1F1F1"/>
<path d="M45.9725 36.0877L50.1431 36.8439C50.0299 39.2319 48.8221 41.401 46.4443 43.3115C41.9907 46.8935 36.9709 46.2368 34.0269 42.197C31.083 38.1573 31.9133 32.8439 35.8763 29.64C39.4619 26.7346 44.2741 26.7744 47.52 31.1922L39.9526 40.2269C41.2358 40.9433 42.5757 40.6846 43.9722 39.5702C45.1988 38.5951 45.7272 37.5603 45.9914 36.0678L45.9725 36.0877ZM37.839 38.0976L42.1228 32.9434C41.0094 32.0678 39.5563 32.028 38.3485 33.023C36.8577 34.237 36.5746 36.0678 37.839 38.1175V38.0976Z" fill="#F1F1F1"/>
<path d="M78.714 35.5303V45.2815H73.2036V36.5055C73.2036 34.0577 72.2789 33.003 70.8258 33.003C69.2217 33.003 68.0706 34.1771 68.0706 36.804V45.2815H62.5601V36.5055C62.5601 34.0577 61.6543 33.003 60.1823 33.003C58.5594 33.003 57.3894 34.1771 57.3894 36.804V45.2815H51.8789V28.2071H57.1252V29.9981C58.314 28.6051 59.9747 27.9285 61.8241 27.9285C63.9755 27.9285 65.806 28.7842 66.9005 30.615C68.146 28.9235 70.0898 27.9285 72.3544 27.9285C76.0154 27.9285 78.6952 30.2369 78.6952 35.5104L78.714 35.5303Z" fill="#F1F1F1"/>
<path d="M99.0572 28.2271V45.3015H93.811V43.61C92.773 44.9632 91.2256 45.6 89.1686 45.6C84.9037 45.6 81.4502 42.197 81.4502 36.7444C81.4502 31.2917 84.9037 27.9684 89.1686 27.9684C90.9991 27.9684 92.4711 28.5256 93.5468 29.7395V28.2669H99.0572V28.2271ZM93.6411 36.7245C93.6411 34.1374 92.188 32.7046 90.3386 32.7046C88.4892 32.7046 87.0361 34.1573 87.0361 36.7245C87.0361 39.2916 88.4892 40.8239 90.3386 40.8239C92.188 40.8239 93.6411 39.3513 93.6411 36.7245Z" fill="#F1F1F1"/>
</svg>
