<svg width="140" height="28" viewBox="0 0 140 28" fill="none" xmlns="http://www.w3.org/2000/svg">
<g clip-path="url(#clip0_1739_174877)">
<path d="M23.7377 21.6516H18.7747L11.8689 0H16.8319L23.7377 21.6516Z" fill="#F0F0F0"/>
<path d="M0 21.6516H4.96305L11.8688 0H6.90577L0 21.6516Z" fill="#5D45FF"/>
<path d="M82.9493 4.41626C77.5612 4.41626 73.1938 8.36598 73.1938 13.238C73.1938 18.1099 77.5618 22.0597 82.9493 22.0597C88.3369 22.0597 92.7048 18.1099 92.7048 13.238C92.7048 8.36598 88.3369 4.41626 82.9493 4.41626ZM82.9493 18.1845C79.9284 18.1845 77.4798 15.9701 77.4798 13.2386C77.4798 10.507 79.9284 8.2926 82.9493 8.2926C85.9703 8.2926 88.4189 10.507 88.4189 13.2386C88.4189 15.9701 85.9703 18.1845 82.9493 18.1845Z" fill="#F0F0F0"/>
<path d="M72.0103 0H67.519V21.6516H72.0103V0Z" fill="#F0F0F0"/>
<path d="M103.991 4.59155C101.604 4.59155 99.537 5.95585 98.5318 7.94473V4.59155H94.0405V21.6521H98.5318V14.3797C98.5318 11.0175 101.267 8.29192 104.641 8.29192H106.877V4.59155H103.991Z" fill="#F0F0F0"/>
<path d="M137.114 4.59155C134.728 4.59155 132.66 5.95585 131.655 7.94473V4.59155H127.164V21.6521H131.655V14.3797C131.655 11.0175 134.39 8.29192 137.765 8.29192H140V4.59155H137.114Z" fill="#F0F0F0"/>
<path d="M124.636 13.816H125.963C125.977 13.6251 125.984 13.4324 125.984 13.238C125.984 8.36598 121.616 4.41626 116.229 4.41626C110.841 4.41626 106.473 8.36598 106.473 13.238C106.473 18.1099 110.841 22.0597 116.229 22.0597C120.717 22.0597 124.497 19.3185 125.634 15.5871H121.13C120.198 17.1734 118.353 18.2531 116.229 18.2531C113.382 18.2531 111.037 16.3131 110.719 13.8154H124.636V13.816ZM116.228 8.22281C118.34 8.22281 120.176 9.29003 121.112 10.8601H111.344C112.281 9.29003 114.116 8.22281 116.228 8.22281H116.228Z" fill="#F0F0F0"/>
<path d="M35.058 0.00119309V0H24.344V21.6516H35.058V21.6504C40.5485 21.5889 44.9805 17.1363 44.9805 11.6505V10.0011C44.9805 4.51584 40.5485 0.0626372 35.058 0.00119309ZM40.6538 11.0969C40.6538 14.6458 37.7664 17.5229 34.2048 17.5229H28.8353V4.12868H34.2048C37.7664 4.12868 40.6538 7.00582 40.6538 10.5547V11.0975V11.0969Z" fill="#F0F0F0"/>
<path d="M57.0942 4.41626C54.8719 4.41626 52.8382 5.20191 51.2655 6.50416V4.63102H46.7742V27.9994H51.2655V19.9717C52.8376 21.274 54.8719 22.0597 57.0942 22.0597C62.0776 22.0597 66.1175 18.1099 66.1175 13.238C66.1175 8.36598 62.0776 4.41626 57.0942 4.41626ZM61.9471 13.2678C61.9471 16.0507 59.441 18.3068 56.35 18.3068C53.2591 18.3068 50.753 16.0507 50.753 13.2678C50.753 10.4849 53.2591 8.22877 56.35 8.22877C58.7166 8.22877 60.7408 9.55131 61.5592 11.4203C61.8094 11.9828 61.9471 12.5961 61.9471 13.238C61.9471 13.2427 61.9471 13.2475 61.9471 13.2529C61.9471 13.2576 61.9471 13.263 61.9471 13.2678Z" fill="#F0F0F0"/>
</g>
<defs>
<clipPath id="clip0_1739_174877">
<rect width="140" height="28" fill="white"/>
</clipPath>
</defs>
</svg>
