<svg width="24" height="24" viewBox="0 0 24 24" fill="none" xmlns="http://www.w3.org/2000/svg">
  <path d="M9.75 12.1875C9.75 15 8.625 16.6875 5.25 18.375M9.75 12.1875H4.125C3.50368 12.1875 3 11.6838 3 11.0625V7.125C3 6.50368 3.50368 6 4.125 6H8.625C9.24632 6 9.75 6.50368 9.75 7.125V12.1875Z" stroke="currentColor" stroke-width="1.6" stroke-linecap="round"/>
  <path d="M20.5 12.1875C20.5 15 19.375 16.6875 16 18.375M20.5 12.1875H14.875C14.2537 12.1875 13.75 11.6838 13.75 11.0625V7.125C13.75 6.50368 14.2537 6 14.875 6H19.375C19.9963 6 20.5 6.50368 20.5 7.125V12.1875Z" stroke="currentColor" stroke-width="1.6" stroke-linecap="round"/>
</svg>
