<svg width="76" height="247" viewBox="0 0 76 247" fill="none" xmlns="http://www.w3.org/2000/svg">
<rect width="76" height="247" rx="38" fill="#2FF36F"/>
<path d="M40.78 38.1786L40.78 40.3186L38.72 40.3186L38.72 47.2986L37.02 47.2986L37.02 31.2386L38.72 31.2386L38.72 38.1786L40.78 38.1786ZM41.44 32.0786C41.84 35.8186 43.52 38.1586 45.56 38.1586L46.04 38.1586L46.04 40.3586L45.56 40.3586C43.52 40.3586 41.84 42.6986 41.44 46.4386L39.8 45.6986C40.18 42.7386 41.32 40.3986 43.06 39.2586C41.32 38.1186 40.18 35.7586 39.8 32.8186L41.44 32.0786ZM34.24 33.1186L35.86 33.1186L35.86 45.2986L31.5 45.2986L31.5 35.2786L30.18 35.2786L30.18 45.8186L28.54 45.8186L28.54 33.1586L33.02 33.1586L33.02 43.1986L34.24 43.1986L34.24 33.1186ZM45.54 50.5991L45.54 62.9191L40.52 62.9191L40.52 52.8191L38.72 52.8191L38.72 63.3591L37 63.3591L37 50.6391L42.16 50.6391L42.16 60.7591L43.82 60.7591L43.82 50.5991L45.54 50.5991ZM33.72 48.7191L35.46 48.7191L35.46 64.8191L33.72 64.8191L33.72 57.8191L28.36 57.8191L28.36 55.6791L33.72 55.6791L33.72 48.7191ZM43.76 75.5795L43.76 78.7995L46.16 78.7995L46.16 80.9595L32.96 80.9595L32.96 78.7995L38.5 78.7995L38.5 75.5795L40.22 75.5795L40.22 78.7995L42 78.7995L42 75.5795L43.76 75.5795ZM36.8 66.1395C37.86 68.9595 40.36 70.4195 43.04 70.4195L45.2 70.4195L45.2 72.5795L43.04 72.5795C40.52 72.5795 38.08 73.9995 37.06 76.6995L35.38 75.5195C36.14 73.6195 37.62 72.2795 39.46 71.5195C37.48 70.7795 35.92 69.3395 35.14 67.2795L36.8 66.1395ZM28.74 69.3395L34.22 69.3395L34.22 71.4795L30.48 71.4795L30.48 81.3595L28.74 81.3595L28.74 69.3395Z" fill="#26262C"/>
<path d="M29.8 100.064C29.8 98.9704 29.9533 97.9237 30.26 96.9237C30.58 95.9237 30.9867 95.1304 31.48 94.5437L33.5 95.4437C33.06 96.0037 32.6933 96.6971 32.4 97.5237C32.1067 98.3504 31.96 99.1971 31.96 100.064C31.96 100.797 32.04 101.39 32.2 101.844C32.36 102.297 32.5733 102.63 32.84 102.844C33.12 103.057 33.4333 103.164 33.78 103.164C34.2067 103.164 34.5467 103.01 34.8 102.704C35.0667 102.397 35.2733 101.997 35.42 101.504C35.58 101.024 35.7267 100.484 35.86 99.8837C35.9933 99.2971 36.1467 98.7037 36.32 98.1037C36.5067 97.5171 36.74 96.9771 37.02 96.4837C37.3133 96.0037 37.7 95.6104 38.18 95.3037C38.66 94.9971 39.2733 94.8437 40.02 94.8437C40.78 94.8437 41.4733 95.0437 42.1 95.4437C42.74 95.8571 43.2467 96.4771 43.62 97.3038C44.0067 98.1438 44.2 99.2038 44.2 100.484C44.2 101.324 44.0933 102.157 43.88 102.984C43.6667 103.81 43.36 104.53 42.96 105.144L40.94 104.324C41.3133 103.697 41.5867 103.05 41.76 102.384C41.9467 101.717 42.04 101.077 42.04 100.464C42.04 99.7438 41.9533 99.1571 41.78 98.7038C41.6067 98.2637 41.38 97.9371 41.1 97.7237C40.82 97.5237 40.5 97.4237 40.14 97.4237C39.7133 97.4237 39.3667 97.5704 39.1 97.8637C38.8467 98.1704 38.6467 98.5637 38.5 99.0438C38.3533 99.5371 38.2067 100.084 38.06 100.684C37.9267 101.284 37.7733 101.877 37.6 102.464C37.4267 103.064 37.2 103.604 36.92 104.084C36.64 104.577 36.26 104.97 35.78 105.264C35.3 105.57 34.6933 105.724 33.96 105.724C33.2133 105.724 32.52 105.517 31.88 105.104C31.2533 104.704 30.7467 104.084 30.36 103.244C29.9867 102.404 29.8 101.344 29.8 100.064ZM30 110.947L41.8 110.947L41.8 106.307L44 106.307L44 118.187L41.8 118.187L41.8 113.547L30 113.547L30 110.947ZM30 117.455L44 123.755L44 126.315L30 132.635L30 129.915L42.62 124.495L42.62 125.535L30 120.135L30 117.455ZM33.24 120.355L35.28 121.055L35.28 128.615L33.24 129.315L33.24 120.355ZM30 134.415L44 134.415L44 140.175C44 141.415 43.8 142.475 43.4 143.355C43 144.248 42.4267 144.935 41.68 145.415C40.9333 145.895 40.0467 146.135 39.02 146.135C37.9933 146.135 37.1067 145.895 36.36 145.415C35.6267 144.935 35.06 144.248 34.66 143.355C34.2733 142.475 34.08 141.415 34.08 140.175L34.08 135.855L35.26 137.015L30 137.015L30 134.415ZM30 143.575L35.08 140.035L35.08 142.815L30 146.375L30 143.575ZM34.98 137.015L36.22 135.855L36.22 140.055C36.22 141.202 36.4667 142.062 36.96 142.635C37.4533 143.222 38.14 143.515 39.02 143.515C39.9133 143.515 40.6 143.222 41.08 142.635C41.56 142.062 41.8 141.202 41.8 140.055L41.8 135.855L43.08 137.015L34.98 137.015ZM30 151.689L41.8 151.689L41.8 147.049L44 147.049L44 158.929L41.8 158.929L41.8 154.289L30 154.289L30 151.689Z" fill="#26262C"/>
<circle cx="38" cy="203" r="27" fill="#26262C"/>
<line x1="30.5657" y1="195.813" x2="37.9891" y2="203.237" stroke="#2FF36F" stroke-width="1.6"/>
<line x1="30.5657" y1="203.687" x2="37.9891" y2="211.11" stroke="#2FF36F" stroke-width="1.6"/>
<line x1="46.5657" y1="195.566" x2="37.8813" y2="204.25" stroke="#2FF36F" stroke-width="1.6"/>
<line x1="46.5657" y1="203.611" x2="37.961" y2="212.215" stroke="#2FF36F" stroke-width="1.6"/>
</svg>
