<svg width="24" height="24" viewBox="0 0 24 24" fill="none" xmlns="http://www.w3.org/2000/svg">
<circle cx="12" cy="12" r="9" fill="#A3A1B1"/>
<path d="M14.8343 8.40691L8.40569 14.8355C8.19648 15.0447 8.19648 15.3839 8.40569 15.5931C8.6149 15.8023 8.95409 15.8023 9.1633 15.5931L15.5919 9.16452C15.8011 8.95531 15.8011 8.61612 15.5919 8.40691C15.3827 8.1977 15.0435 8.1977 14.8343 8.40691Z" fill="white"/>
<path d="M8.40569 9.16452L14.8343 15.5931C15.0435 15.8023 15.3827 15.8023 15.5919 15.5931C15.8011 15.3839 15.8011 15.0447 15.5919 14.8355L9.1633 8.40691C8.95409 8.1977 8.6149 8.1977 8.40569 8.40691C8.19648 8.61612 8.19648 8.95531 8.40569 9.16452Z" fill="white"/>
</svg>
