<svg width="50" height="50" viewBox="0 0 50 50" fill="none" xmlns="http://www.w3.org/2000/svg">
<path d="M5.16797 30.4167L5.16797 42.5C5.16797 43.1904 5.72761 43.75 6.41797 43.75H14.3346C15.025 43.75 15.5846 43.1904 15.5846 42.5V30.4167C15.5846 29.7263 15.025 29.1667 14.3346 29.1667H6.41797C5.72761 29.1667 5.16797 29.7263 5.16797 30.4167Z" stroke="#9FAFFF" stroke-width="1.2"/>
<path d="M35.416 18.9583V31.0416C35.416 31.732 35.9757 32.2916 36.666 32.2916H44.5827C45.273 32.2916 45.8327 31.732 45.8327 31.0416V18.9583C45.8327 18.2679 45.273 17.7083 44.5827 17.7083H36.666C35.9757 17.7083 35.416 18.2679 35.416 18.9583Z" stroke="#9FAFFF" stroke-width="1.2"/>
<path d="M5.16797 7.49992L5.16797 19.5833C5.16797 20.2736 5.72761 20.8333 6.41797 20.8333H14.3346C15.025 20.8333 15.5846 20.2736 15.5846 19.5833V7.49992C15.5846 6.80956 15.025 6.24992 14.3346 6.24992H6.41797C5.72761 6.24992 5.16797 6.80956 5.16797 7.49992Z" stroke="#9FAFFF" stroke-width="1.2"/>
<path d="M15 37H22C24.2092 37 26 35.0464 26 32.6364V17.3636C26 14.9537 24.2092 13 22 13H15" stroke="#9FAFFF" stroke-width="1.2"/>
<path d="M26.041 25H35.416" stroke="#9FAFFF" stroke-width="1.2"/>
</svg>
