<svg width="40" height="40" viewBox="0 0 40 40" fill="none" xmlns="http://www.w3.org/2000/svg">
<rect width="40" height="40" rx="8" fill="#5D45FF"/>
<path d="M14.4444 24.8889C16.899 24.8889 18.8889 22.899 18.8889 20.4444C18.8889 17.9898 16.899 16 14.4444 16C11.9898 16 10 17.9898 10 20.4444C10 22.899 11.9898 24.8889 14.4444 24.8889Z" stroke="#F0EFF6" stroke-width="1.4" stroke-linecap="round" stroke-linejoin="round"/>
<path d="M23.3326 24.8889C24.5599 24.8889 25.5548 22.899 25.5548 20.4444C25.5548 17.9898 24.5599 16 23.3326 16C22.1052 16 21.1104 17.9898 21.1104 20.4444C21.1104 22.899 22.1052 24.8889 23.3326 24.8889Z" stroke="#F0EFF6" stroke-width="1.4" stroke-linecap="round" stroke-linejoin="round"/>
<path d="M28.8885 24.8889C29.5021 24.8889 29.9996 22.899 29.9996 20.4444C29.9996 17.9898 29.5021 16 28.8885 16C28.2748 16 27.7773 17.9898 27.7773 20.4444C27.7773 22.899 28.2748 24.8889 28.8885 24.8889Z" stroke="#F0EFF6" stroke-width="1.4" stroke-linecap="round" stroke-linejoin="round"/>
</svg>
