<svg width="50" height="50" viewBox="0 0 50 50" fill="none" xmlns="http://www.w3.org/2000/svg">
<path d="M25.0013 33.3333C29.6036 33.3333 33.3346 29.6023 33.3346 25C33.3346 20.3976 29.6036 16.6666 25.0013 16.6666C20.3989 16.6666 16.668 20.3976 16.668 25C16.668 29.6023 20.3989 33.3333 25.0013 33.3333Z" stroke="#9FAFFF" stroke-width="1.2" stroke-linecap="round" stroke-linejoin="round"/>
<path d="M43.75 15.3189V34.6813C43.75 35.1353 43.504 35.5534 43.1071 35.774L25.6071 45.4961C25.2296 45.7059 24.7705 45.7059 24.393 45.4961L6.89298 35.774C6.49617 35.5534 6.25004 35.1353 6.25004 34.6813L6.25 15.3189C6.25 14.8649 6.49612 14.4467 6.89296 14.2262L24.393 4.50398C24.7705 4.29425 25.2296 4.29425 25.6071 4.50398L43.1071 14.2262C43.5038 14.4467 43.75 14.8649 43.75 15.3189Z" stroke="#9FAFFF" stroke-width="1.2" stroke-linecap="round" stroke-linejoin="round"/>
<path d="M42.709 15.1621L32.5006 20.8335M7.35156 15.195L17.5007 20.8335L7.35156 15.195Z" stroke="#9FAFFF" stroke-width="1.2" stroke-linecap="round" stroke-linejoin="round"/>
<path d="M25 45L25 34" stroke="#9FAFFF" stroke-width="1.2" stroke-linecap="round" stroke-linejoin="round"/>
</svg>
