<svg width="40" height="40" viewBox="0 0 40 40" fill="none" xmlns="http://www.w3.org/2000/svg">
<rect width="40" height="40" rx="8" fill="#F0EFF6"/>
<path d="M11 24L18 21L22 22.8182" stroke="#5D45FF" stroke-width="1.6" stroke-linecap="round" stroke-linejoin="round"/>
<path d="M24 18C22.8954 18 22 17.1046 22 16C22 14.8954 22.8954 14 24 14C25.1046 14 26 14.8954 26 16C26 17.1046 25.1046 18 24 18Z" stroke="#5D45FF" stroke-width="1.6" stroke-linecap="round" stroke-linejoin="round"/>
<path d="M27 26.9999H30M27 30L27 26.9999L27 30ZM27 24V26.9999V24ZM27 26.9999L24 27L27 26.9999Z" stroke="#5D45FF" stroke-width="1.6" stroke-linecap="round" stroke-linejoin="round"/>
<path d="M21 29H11.6C11.2686 29 11 28.7314 11 28.4V11.6C11 11.2686 11.2686 11 11.6 11H28.4C28.7314 11 29 11.2686 29 11.6V21" stroke="#5D45FF" stroke-width="1.6" stroke-linecap="round" stroke-linejoin="round"/>
</svg>
