<svg width="40" height="40" viewBox="0 0 40 40" fill="none" xmlns="http://www.w3.org/2000/svg">
<path d="M28.6991 18.2001C28.6991 13.119 24.58 9 19.4989 9C14.4179 9 10.2988 13.119 10.2988 18.2001" stroke="#26262C" stroke-width="1.5" stroke-linecap="round" stroke-linejoin="round"/>
<path d="M8 23.3034V21.145C8 20.0896 8.71829 19.1697 9.74219 18.9137L11.7427 18.4135C12.1782 18.3046 12.6001 18.634 12.6001 19.083V25.3655C12.6001 25.8144 12.1782 26.1438 11.7427 26.0349L9.74219 25.5348C8.71829 25.2788 8 24.3589 8 23.3034Z" stroke="#26262C" stroke-width="1.5"/>
<path d="M31.0004 23.3034V21.145C31.0004 20.0896 30.2821 19.1697 29.2583 18.9137L27.2577 18.4135C26.8222 18.3046 26.4004 18.634 26.4004 19.083V25.3655C26.4004 25.8144 26.8222 26.1438 27.2577 26.0349L29.2583 25.5348C30.2821 25.2788 31.0004 24.3589 31.0004 23.3034Z" stroke="#26262C" stroke-width="1.5"/>
<path d="M28.7001 26.25V26.825C28.7001 28.0953 27.6704 29.125 26.4 29.125H22.375" stroke="#5D45FF" stroke-width="1.5"/>
<path d="M21.2239 30.8475H17.7738C16.8211 30.8475 16.0488 30.0752 16.0488 29.1225C16.0488 28.1698 16.8211 27.3975 17.7738 27.3975H21.2239C22.1766 27.3975 22.9489 28.1698 22.9489 29.1225C22.9489 30.0752 22.1766 30.8475 21.2239 30.8475Z" stroke="#5D45FF" stroke-width="1.5"/>
</svg>
