<svg width="67" height="15" viewBox="0 0 67 15" fill="none" xmlns="http://www.w3.org/2000/svg">
<path d="M9.784 0.119999H11.24V10.552H9.784V6.872H6.712V8.2H0.264V1.048H1.704V3.464H5.272V1.048H6.712V2.648H9.784V0.119999ZM1.704 7.016H5.272V4.584H1.704V7.016ZM2.12 13.928V9.528H3.576V12.728H11.576V13.928H2.12ZM6.712 5.672H9.784V3.832H6.712V5.672ZM20.2164 5.56H23.7684V3.8H20.3604C19.4644 6.056 17.3524 7.672 14.3124 8.552L13.7364 7.4C17.0964 6.44 19.0324 4.648 19.2724 2.328H14.4724V1.144H20.8564C20.8564 1.656 20.8084 2.152 20.7124 2.632H23.7684V0.103999H25.2244V8.488H23.7684V6.744H20.2164V5.56ZM15.9124 11.416C15.9124 9.688 17.7364 8.648 20.6164 8.648C23.4644 8.648 25.2884 9.688 25.2884 11.416C25.2884 13.112 23.4644 14.152 20.6164 14.152C17.7364 14.152 15.9124 13.112 15.9124 11.416ZM17.3684 11.416C17.3684 12.408 18.6164 13 20.6164 13C22.6164 13 23.8484 12.408 23.8484 11.416C23.8484 10.376 22.6164 9.8 20.6164 9.8C18.6164 9.8 17.3684 10.376 17.3684 11.416ZM37.0168 0.119999H38.4728V5.848H40.7128V7.064H38.4728V14.232H37.0168V0.119999ZM27.4808 3.512V2.328H30.9368V0.296H32.4248V2.328H35.8008V3.512H27.4808ZM28.2328 7.864C28.2328 5.944 29.7048 4.6 31.6888 4.6C33.7048 4.6 35.1608 5.944 35.1608 7.864C35.1608 9.784 33.7048 11.128 31.6888 11.128C29.7048 11.128 28.2328 9.784 28.2328 7.864ZM29.6248 7.864C29.6248 9.096 30.4888 9.928 31.6888 9.928C32.8888 9.928 33.7688 9.096 33.7688 7.864C33.7688 6.648 32.8888 5.8 31.6888 5.8C30.4888 5.8 29.6248 6.648 29.6248 7.864ZM51.6891 0.103999H53.1611V14.216H51.6891V0.103999ZM41.6731 10.488C45.4171 8.68 47.2251 6.104 47.5131 2.792H42.3451V1.608H48.9851C48.9851 5.752 47.2411 9.32 42.4411 11.64L41.6731 10.488ZM66.737 7.256L60.721 13.272L59.745 12.296L64.785 7.256L59.745 2.232L60.721 1.24L66.737 7.256Z" fill="#5D45FF"/>
</svg>
