<svg xmlns="http://www.w3.org/2000/svg" width="68" height="69" fill="none" viewBox="0 0 68 69">
  <path stroke="#5D45FF" stroke-linecap="round" stroke-linejoin="round" stroke-width="1.5" d="M51.333 34.362V20.817a1.3 1.3 0 0 0-.38-.92l-6.823-6.82a1.3 1.3 0 0 0-.919-.382H17.967a1.3 1.3 0 0 0-1.3 1.3V54.73a1.3 1.3 0 0 0 1.3 1.3h13.866"/>
  <path stroke="#5D45FF" stroke-linecap="square" stroke-linejoin="round" stroke-width="1.5" d="M25.334 38.695h6.5m-6.5-8.667h17.333-17.334Zm0-8.667H34h-8.666Z"/>
  <path fill="#5D45FF" stroke="#5D45FF" stroke-linecap="round" stroke-linejoin="round" stroke-width="1.5" d="M42.666 20.062v-6.6a.766.766 0 0 1 1.308-.542l7.135 7.134a.765.765 0 0 1-.542 1.308h-6.6a1.3 1.3 0 0 1-1.3-1.3Z"/>
  <path stroke="#5D45FF" stroke-linecap="round" stroke-linejoin="round" stroke-width="1.5" d="m43.329 45.44 1.97-4.176a.676.676 0 0 1 1.236 0l1.97 4.176 4.405.674c.565.087.79.814.381 1.23l-3.187 3.25.752 4.589c.097.59-.494 1.039-1 .76l-3.94-2.168-3.938 2.169c-.506.278-1.097-.172-1-.761l.752-4.59-3.187-3.248c-.41-.417-.184-1.145.38-1.231l4.406-.674Z"/>
</svg>
