<svg width="162" height="162" viewBox="0 0 162 162" fill="none" xmlns="http://www.w3.org/2000/svg">
<path d="M9.65811 3H152.342C153.425 3 155.036 3.82539 156.549 6.54886C158.005 9.17068 159 12.996 159 17.385V144.615C159 149.004 158.005 152.829 156.549 155.451C155.036 158.175 153.425 159 152.342 159H9.65811C8.57535 159 6.96428 158.175 5.45128 155.451C3.99475 152.829 3 149.004 3 144.615V17.385C3 12.996 3.99475 9.17068 5.45128 6.54886C6.96428 3.82539 8.57535 3 9.65811 3Z" stroke="#F0EFF6" stroke-width="6"/>
<path d="M97.3948 55.9082L143.188 116.351H87.9036L69.7676 92.4246L97.3948 55.9082Z" fill="#F0EFF6"/>
<path d="M49.8497 78.668L78.3837 116.352H21.3157L49.8497 78.668Z" fill="#F0EFF6"/>
<path d="M52.5096 55.9087C52.5096 64.0266 45.5273 70.6064 36.9127 70.6064C28.298 70.6064 21.3157 64.0266 21.3157 55.9087C21.3157 47.7907 28.298 41.2109 36.9127 41.2109C45.5273 41.2109 52.5096 47.7907 52.5096 55.9087Z" fill="#F0EFF6"/>
</svg>
