<svg width="24" height="24" viewBox="0 0 24 24" fill="none" xmlns="http://www.w3.org/2000/svg">
<circle cx="12" cy="12" r="12" fill="#3D3C42"/>
<path d="M8.53505 17V7.2H12.777C13.6544 7.2 14.4104 7.34467 15.045 7.634C15.6797 7.914 16.1697 8.32 16.515 8.852C16.8604 9.384 17.033 10.0187 17.033 10.756C17.033 11.484 16.8604 12.114 16.515 12.646C16.1697 13.178 15.6797 13.5887 15.045 13.878C14.4104 14.158 13.6544 14.298 12.777 14.298H9.79505L10.803 13.276V17H8.53505ZM10.803 13.528L9.79505 12.45H12.651C13.351 12.45 13.8737 12.3007 14.219 12.002C14.5644 11.7033 14.737 11.288 14.737 10.756C14.737 10.2147 14.5644 9.79467 14.219 9.496C13.8737 9.19733 13.351 9.048 12.651 9.048H9.79505L10.803 7.97V13.528Z" fill="white"/>
</svg>
