<svg width="300" height="140" viewBox="0 0 300 140" fill="none" xmlns="http://www.w3.org/2000/svg">
<g clip-path="url(#clip0_1493_157207)">
<path d="M134.31 53.9414H149.074V61.5534C152.397 56.1585 156.466 52.3381 162.746 52.757C168.876 53.1614 172.837 56.9458 175.197 63.4962C177.238 57.863 180.48 54.2591 185.702 53.0531C193.006 51.3559 201.001 56.9602 201.374 64.8539C201.849 74.8565 201.49 84.8951 201.49 95.4321C196.966 95.4321 192.606 95.5405 188.259 95.3021C187.682 95.2733 186.746 93.5111 186.726 92.5361C186.59 85.964 186.651 79.3847 186.651 72.8126C186.651 71.5271 186.651 70.2416 186.651 68.7249H175.475V95.201H160.542V68.7322H149.318V95.4394C144.584 95.4394 140.339 95.5188 136.107 95.3527C135.483 95.331 134.391 94.1249 134.385 93.4533C134.283 80.4391 134.31 67.425 134.31 53.9486V53.9414Z" fill="#3D3C42"/>
<path d="M89.0761 53.9126H103.833V80.3237H115.247V53.9632H129.828V95.4178C125.419 95.4178 121.066 95.4828 116.725 95.3311C116.217 95.3167 115.416 94.1684 115.321 93.4606C115.111 91.8429 115.254 90.1746 115.254 87.5746C114.236 88.9613 113.728 89.6185 113.253 90.3046C109.733 95.3672 103.969 97.5411 98.6316 95.815C92.901 93.9589 89.1778 88.9541 89.0965 82.5047C88.9812 73.0872 89.0693 63.6624 89.0693 53.9198L89.0761 53.9126Z" fill="#3D3C42"/>
<path d="M206.861 53.9197C214.375 53.9197 221.808 53.573 229.2 54.028C234.876 54.3819 239.237 59.2785 240.43 65.3233C241.549 70.9927 239.196 75.8892 232.808 80.3308H243.055V95.1577H227.41C227.301 93.3739 227.192 91.6406 227.037 89.0984C223.747 94.1322 219.773 97.3821 214.402 96.1255C211.635 95.4827 208.692 93.67 206.752 91.4672C202.337 86.4551 203.382 78.2942 208.468 73.9032C214.158 68.9922 221.116 70.4294 226.901 78.0703V68.6961H206.854V53.9197H206.861Z" fill="#3D3C42"/>
<path d="M59.9626 68.4289H50.0002C50.0002 64.529 49.9867 60.9757 50.0273 57.4225C50.0273 56.9819 50.2172 56.3969 50.5224 56.1369C55.3917 51.9698 60.3017 47.846 66.039 43V53.5875H85.1838V68.4939H66.5748V80.4753H85.2177V95.1072C77.9342 95.1072 70.8405 95.5839 63.8349 94.9555C58.4503 94.4717 54.917 90.4128 53.5199 84.8952C52.1568 79.5292 53.5199 74.7193 57.3991 70.8338C57.962 70.2705 58.5655 69.7433 59.9626 68.4361V68.4289Z" fill="#3D3C42"/>
<path d="M250 56.3536C249.973 59.0546 247.823 61.3007 245.266 61.3007C242.452 61.3007 240.458 59.0691 240.573 56.0358C240.675 53.2481 242.818 51.1031 245.395 51.1898C247.87 51.2765 250.027 53.6886 250.006 56.3463L250 56.3536ZM247.334 59.2279C249.518 57.4513 249.484 55.1619 247.646 53.5442C246.69 52.7064 243.869 52.5403 243.32 53.277C242.384 54.5264 241.855 57.0902 242.465 58.448C243.374 60.4701 245.497 61.1274 247.429 59.1196L247.341 59.2279H247.334Z" fill="#3D3C42"/>
<path d="M247.423 59.1196C245.49 61.1201 243.368 60.4701 242.459 58.448C241.848 57.0974 242.377 54.5264 243.313 53.277C243.863 52.5403 246.684 52.6992 247.64 53.5442C249.478 55.1619 249.512 57.4513 247.335 59.2279C247.22 58.5274 246.989 57.8269 247.003 57.1335C247.077 53.5225 246.786 53.2914 243.327 54.4036V57.5741C244.934 58.1807 246.175 58.6502 247.416 59.1196H247.423Z" fill="white"/>
<path d="M247.423 59.1196C246.182 58.6502 244.941 58.1808 243.334 57.5741V54.4036C246.793 53.2914 247.084 53.5225 247.01 57.1336C246.996 57.8269 247.227 58.5274 247.342 59.2279L247.43 59.1268L247.423 59.1196Z" fill="#3D3C42"/>
</g>
<defs>
<clipPath id="clip0_1493_157207">
<rect width="200" height="53.4072" fill="white" transform="translate(50 43)"/>
</clipPath>
</defs>
</svg>
