<svg width="300" height="140" viewBox="0 0 300 140" fill="none" xmlns="http://www.w3.org/2000/svg">
<g clip-path="url(#clip0_1493_157208)">
<path d="M131.379 88.3456C128.897 88.0279 126.233 89.8799 125.014 86.3154C118.053 90.3913 112.138 89.7714 108.124 84.5719C103.987 79.2174 103.944 69.9342 108.023 64.5099C112.102 59.0934 118.024 58.241 125.246 62.348V47.47C130.762 45.7032 131.372 46.1527 131.372 51.7862C131.372 63.8048 131.372 75.8311 131.372 88.3534L131.379 88.3456ZM111.361 74.4053C111.39 79.8141 114.163 83.2236 118.467 83.1151C122.59 83.0144 125.391 79.2794 125.29 74.0101C125.188 68.9036 122.365 65.618 118.155 65.7342C114.018 65.8427 111.34 69.26 111.369 74.4053H111.361Z" fill="#3D3C42"/>
<path d="M43.8758 61.6738C42.5766 60.403 41.2702 59.1167 40 57.8691C47.3452 47.6405 64.4452 47.346 74.3162 56.9702C84.6663 67.0593 85.2397 85.1531 75.2235 95.095C73.9025 93.7467 72.5598 92.3828 71.2461 91.05C77.8074 79.3181 77.655 70.1512 70.905 62.7044C64.0606 55.1415 55.9968 54.8315 43.8758 61.6816V61.6738Z" fill="#3D3C42"/>
<path d="M190.294 76.203H171.699C171.38 79.752 173.013 81.604 175.437 82.7896C178.209 84.1456 181.294 84.0216 183.094 81.5265C185.315 78.4269 187.253 78.9073 189.699 80.5811C188.574 86.788 182.659 90.3525 175.72 89.043C168.309 87.6404 163.94 80.4726 165.116 71.6389C166.183 63.6265 172.461 58.6516 180.147 59.7287C187.101 60.6974 191.165 67.0127 190.287 76.2107L190.294 76.203ZM183.943 71.2049C183.247 66.881 181.149 65.06 177.527 65.2305C174.159 65.3855 172.229 67.4234 171.953 71.2049H183.951H183.943Z" fill="#3D3C42"/>
<path d="M259.999 60.7904C256.464 69.1593 253.075 77.2104 249.671 85.2616C248.234 88.6556 246.753 92.0264 245.331 95.4282C243.211 100.488 242.943 100.635 236.933 99.2716C238.297 96.0636 239.35 92.7625 241.019 89.8644C242.986 86.4549 242.543 83.6343 240.852 80.2713C237.739 74.0799 235.06 67.6482 232.193 61.2864C237.26 59.3491 238.61 59.8916 240.562 64.3859C242.42 68.6556 244.293 72.9098 246.47 77.8846C248.372 73.1732 249.99 69.2135 251.565 65.2306C252.964 61.6919 255.777 60.2144 260.006 60.7982L259.999 60.7904Z" fill="#3D3C42"/>
<path d="M41.6758 75.8466C42.4088 66.1837 49.7032 59.3259 58.2097 59.9613C66.6364 60.589 73.2848 68.3069 73.0452 77.1717C72.8057 85.9435 65.9759 93.274 57.8976 93.1267V87.2686C58.9428 86.8424 60.1767 86.4394 61.3307 85.8582C65.1847 83.9055 67.3259 79.4809 66.6291 75.064C65.9614 70.8098 62.6371 67.3383 58.667 66.7416C54.5299 66.1217 50.0371 68.1287 48.8976 72.2124C47.6347 76.73 45.1742 76.6603 41.683 75.8466H41.6758Z" fill="#3D3C42"/>
<path d="M218.746 68.6168C218.122 68.9655 217.614 69.3142 217.069 69.5467C216.075 69.9651 215.051 70.3216 214.093 70.6858C209.259 65.308 205.217 64.4557 201.951 68.0434C198.888 71.4064 199.149 78.334 202.444 81.2863C206.015 84.4789 210.319 83.4638 213.985 78.2565C215.501 78.8222 217.135 79.4343 218.731 80.031C217.65 86.0752 212.729 89.6009 206.255 89.2367C199.28 88.8493 194.003 83.2158 193.466 75.5909C192.936 68.0047 197.465 61.2166 204.019 59.8528C210.951 58.4037 217.439 62.038 218.746 68.6168Z" fill="#3D3C42"/>
<path d="M58.0154 40.0467C75.2606 38.9773 92.9776 57.877 91.6566 75.7073C86.2856 76.9471 86.2058 76.9006 85.3566 71.6701C83.3098 59.1168 73.8453 48.9812 62.1597 46.8347C58.8065 46.22 57.425 43.9573 58.0154 40.0467Z" fill="#3D3C42"/>
<path d="M222.838 46.9353H228.695V88.1209H222.838V46.9353Z" fill="#3D3C42"/>
<path d="M148.168 60.5424C150.672 60.7826 153.604 58.7059 154.287 62.2704C157.095 61.604 159.883 60.9453 162.67 60.2867C163.004 62.3169 163.337 64.3394 163.708 66.5556C162.154 66.7415 161.218 66.8268 160.289 66.9663C156.261 67.5707 154.41 69.8489 154.301 74.6687C154.199 79.1166 154.279 83.5722 154.279 88.2216H148.168V60.5424Z" fill="#3D3C42"/>
<path d="M136.736 60.5734H142.507V88.0976H136.736V60.5734Z" fill="#3D3C42"/>
<path d="M138.731 55.4978C137.672 53.8008 135.937 52.1968 135.719 50.3835C135.407 47.7954 137.432 45.7807 139.798 46.3928C141.315 46.7803 143.369 49.0042 143.435 50.492C143.5 52.1193 141.555 53.8473 140.488 55.5288L138.731 55.5056V55.4978Z" fill="#3D3C42"/>
<path d="M111.361 74.4052C111.339 69.2599 114.01 65.8427 118.147 65.7342C122.357 65.6257 125.187 68.9035 125.282 74.01C125.383 79.2793 122.589 83.0143 118.459 83.115C114.162 83.2235 111.383 79.814 111.354 74.4052H111.361Z" fill="white"/>
<path d="M183.949 71.205H171.951C172.227 67.4235 174.158 65.3933 177.525 65.2306C181.147 65.0601 183.252 66.8733 183.942 71.205H183.949Z" fill="white"/>
</g>
<defs>
<clipPath id="clip0_1493_157208">
<rect width="220" height="60" fill="white" transform="translate(40 40)"/>
</clipPath>
</defs>
</svg>
