<svg width="300" height="140" viewBox="0 0 300 140" fill="none" xmlns="http://www.w3.org/2000/svg">
<g clip-path="url(#clip0_1493_157209)">
<path d="M30.0381 74.0603C30.0381 70.0589 29.9406 66.0575 30.0575 62.0626C30.2459 55.5473 34.9554 50.9288 41.1783 51.0003C47.8755 51.0782 52.5005 55.4564 52.6499 62.0756C52.7733 67.3696 52.7279 72.6702 52.6694 77.9708C52.6434 80.3677 53.5203 82.245 55.9758 82.3035C58.704 82.3684 59.0613 80.1534 59.0483 77.9188C59.0223 72.8391 58.9963 67.7529 59.0483 62.6732C59.1197 55.7941 63.5304 51.0847 69.8832 51.0132C76.5739 50.9353 81.2509 55.7162 81.3158 62.7771C81.3613 67.7529 81.3613 72.7287 81.3158 77.698C81.2898 80.1469 81.9979 82.245 84.7001 82.297C87.4738 82.3489 88.1234 80.2443 88.0974 77.7889C88.039 72.7092 88.0325 67.623 88.0974 62.5433C88.1819 55.6707 92.6055 51.0392 99.0234 51.0067C105.357 50.9743 110.014 55.6837 110.151 62.4458C110.255 67.4151 110.209 72.3974 110.151 77.3667C110.118 79.8156 110.32 82.297 113.392 82.2905C116.283 82.284 116.906 80.0364 116.861 77.4641C116.776 72.5988 116.802 67.7334 116.841 62.8681C116.887 55.6772 121.453 50.9158 128.157 51.0003C134.62 51.0847 139.044 55.8721 139.083 62.9135C139.122 70.5916 139.011 78.2696 139.148 85.9476C139.187 88.2146 138.531 89.137 136.257 88.7928C135.621 88.6953 134.952 88.7018 134.315 88.7928C131.762 89.176 130.996 88.1627 131.054 85.5774C131.223 77.9058 131.1 70.2213 131.119 62.5433C131.119 60.1853 130.71 57.9378 127.858 57.8923C124.948 57.8468 124.571 60.1398 124.578 62.4718C124.591 67.4476 124.636 72.4234 124.584 77.3927C124.506 84.603 120.219 89.267 113.704 89.3254C107.052 89.3839 102.557 84.603 102.505 77.3602C102.473 72.6053 102.486 67.8438 102.505 63.0824C102.518 60.575 102.408 58.1131 99.1273 57.8338C96.7109 57.6325 95.5871 59.4318 95.5806 63.2188C95.5741 68.0842 95.6261 72.9495 95.5611 77.8149C95.4637 84.7069 90.9946 89.3514 84.6027 89.3059C78.0939 89.254 73.6378 84.7264 73.5144 77.8798C73.4234 72.6897 73.4559 67.4996 73.5014 62.3094C73.5209 60.0164 72.9557 57.9378 70.3704 57.8858C67.5902 57.8273 66.9342 59.9774 66.9536 62.3939C66.9861 67.1488 66.9861 71.9102 66.9666 76.6716C66.9406 84.2652 62.4261 89.2994 55.6575 89.3059C48.8239 89.3059 44.6601 84.6614 44.6276 76.9444C44.6016 72.1895 44.6081 67.4281 44.6276 62.6667C44.6341 60.3412 44.2379 57.9443 41.4512 57.9443C38.593 57.9443 38.3722 60.3932 38.3787 62.6992C38.4046 70.3772 38.3202 78.0552 38.4306 85.7332C38.4631 87.8899 37.9694 88.8058 35.5985 88.8252C30.0186 88.8772 30.0186 88.9876 30.0186 83.4727C30.0186 80.3352 30.0186 77.1978 30.0186 74.0668H30.0381V74.0603Z" fill="#3D3C42"/>
<path d="M151.328 82.3162C151.328 80.9131 151.289 79.5035 151.335 78.1004C151.452 74.6251 153.16 72.7154 156.07 72.7349C158.974 72.7608 160.624 74.6446 160.728 78.1718C160.786 80.1141 160.669 82.0693 160.728 84.0116C160.76 84.9924 160.994 86.0707 162.358 85.9278C163.469 85.8109 163.605 84.8885 163.618 83.9856C163.638 81.8225 163.553 79.6529 163.67 77.4963C163.839 74.5082 165.645 72.7349 168.334 72.7219C171.03 72.7089 172.881 74.4498 173.005 77.4573C173.141 80.6987 173.018 83.9466 173.037 87.188C173.044 88.2143 172.751 88.799 171.582 88.8314C170.361 88.8639 169.809 88.4482 169.828 87.162C169.88 84.135 169.835 81.1079 169.835 78.0744C169.835 76.9441 169.737 75.671 168.328 75.6905C166.912 75.7034 166.866 76.9831 166.873 78.1134C166.886 80.1661 166.957 82.2252 166.84 84.2779C166.671 87.2075 164.768 89.0653 162.144 89.0393C159.5 89.0133 157.72 87.188 157.577 84.1934C157.48 82.1408 157.558 80.0816 157.538 78.0289C157.525 76.9052 157.402 75.632 155.973 75.684C154.544 75.7424 154.563 77.0546 154.557 78.1524C154.557 81.0755 154.544 83.9921 154.557 86.9152C154.563 87.974 154.505 88.8184 153.069 88.8444C151.562 88.8769 151.237 88.1494 151.289 86.8502C151.354 85.3367 151.302 83.8232 151.309 82.3097L151.328 82.3162Z" fill="#3D3C42"/>
<path d="M151.368 60.237C151.368 58.6131 151.179 56.9697 151.413 55.3782C151.809 52.6889 153.42 51.0715 156.278 51.2014C158.961 51.3248 160.449 52.9358 160.644 55.5341C160.812 57.7881 160.657 60.0682 160.722 62.3352C160.748 63.2901 160.825 64.4073 162.183 64.4203C163.567 64.4333 163.612 63.355 163.625 62.3612C163.651 60.4189 163.593 58.4702 163.651 56.5279C163.749 53.1306 165.554 51.1234 168.406 51.1624C171.193 51.1949 172.914 53.0397 173.018 56.3071C173.109 59.1133 173.083 61.9259 173.031 64.7386C173.012 65.8039 173.538 67.2135 171.511 67.2525C169.549 67.2915 169.861 66.0118 169.861 64.8556C169.848 62.1533 169.861 59.4511 169.861 56.7488C169.861 55.651 169.881 54.3064 168.471 54.2609C166.782 54.2025 166.899 55.677 166.899 56.8722C166.893 58.821 166.964 60.7697 166.867 62.7054C166.717 65.661 164.879 67.4799 162.216 67.4669C159.507 67.4539 157.72 65.6675 157.591 62.7054C157.5 60.7632 157.571 58.8145 157.552 56.8722C157.539 55.6835 157.669 54.2154 155.947 54.2869C154.486 54.3454 154.583 55.6835 154.577 56.7748C154.577 59.5875 154.551 62.3936 154.59 65.2063C154.603 66.408 154.525 67.2915 152.907 67.2655C151.257 67.2395 151.29 66.2586 151.316 65.1154C151.342 63.4914 151.322 61.874 151.322 60.25C151.335 60.25 151.355 60.25 151.368 60.25V60.237Z" fill="#3D3C42"/>
<path d="M252.026 79.666C252.026 81.0691 252.072 82.4722 252.02 83.8753C251.89 87.0712 250.162 88.9745 247.414 89.0459C244.556 89.1174 242.705 87.1426 242.575 83.7713C242.503 81.9395 242.562 80.1012 242.536 78.2694C242.523 77.1976 242.666 75.7555 241.237 75.7295C239.593 75.6971 239.736 77.2236 239.73 78.3993C239.717 81.2055 239.691 84.0117 239.736 86.8178C239.756 88.0585 239.58 88.864 238.021 88.8445C236.404 88.825 236.371 87.8767 236.384 86.7139C236.41 83.6934 236.319 80.6663 236.423 77.6458C236.527 74.5343 238.437 72.6765 241.25 72.7285C243.952 72.7804 245.719 74.5213 245.881 77.5094C246.005 79.7699 245.92 82.0434 245.959 84.304C245.972 85.103 246.199 85.8695 247.154 85.9279C248.259 85.9929 248.655 85.2459 248.668 84.2715C248.694 81.251 248.72 78.2304 248.7 75.2034C248.694 73.9367 248.648 72.8519 250.487 72.9234C252.15 72.9883 252.059 74.0146 252.046 75.1254C252.033 76.6389 252.046 78.146 252.046 79.6595H252.033L252.026 79.666Z" fill="#3D3C42"/>
<path d="M270 80.9781C269.942 85.5901 266.35 89.0783 261.666 89.0588C256.846 89.0394 253.248 85.3627 253.397 80.5948C253.54 75.9179 257.106 72.6115 261.887 72.7219C266.681 72.8324 270.059 76.2751 270 80.9781ZM261.822 86.0708C264.68 85.9993 266.746 83.7193 266.668 80.7182C266.59 77.8081 264.278 75.4696 261.562 75.5541C258.828 75.6385 256.638 78.081 256.703 80.9781C256.775 83.9531 258.97 86.1422 261.822 86.0708Z" fill="#3D3C42"/>
<path d="M221.353 80.8222C221.353 79.8543 221.132 78.815 221.399 77.925C221.899 76.2881 219.859 73.7158 222.704 73.0272C227.843 71.78 232.494 73.3065 233.611 76.3466C234.319 78.2758 234.254 80.296 232.747 81.803C230.909 83.6413 231.701 84.999 233.487 85.72C234.728 86.2202 235.001 86.8438 234.787 87.8311C234.494 89.1887 233.357 88.8315 232.416 88.7275C230.538 88.5132 229.648 87.1491 229.031 85.6161C228.375 83.9921 227.173 83.6608 225.66 83.9012C223.965 84.174 224.673 85.5576 224.614 86.4865C224.53 87.7272 224.66 88.8639 222.834 88.838C220.788 88.812 221.405 87.3569 221.366 86.3111C221.295 84.4793 221.347 82.6475 221.347 80.8157L221.353 80.8222ZM226.959 75.9178C225.205 75.5541 224.38 76.2361 224.543 78.3083C224.66 79.7763 224.439 81.1275 226.634 80.9456C228.492 80.7897 230.597 80.9846 230.59 78.3473C230.59 76.2101 228.901 75.8724 226.959 75.9178Z" fill="#3D3C42"/>
<path d="M225.172 51.1689C229.83 51.1689 233.376 54.6832 233.396 59.3147C233.415 63.9722 229.934 67.4539 225.211 67.5059C220.3 67.5578 216.78 64.0566 216.845 59.1977C216.91 54.5338 220.398 51.1689 225.166 51.1689H225.172ZM225.14 54.0985C222.327 54.0856 220.125 56.3656 220.112 59.3017C220.099 62.2508 222.256 64.5373 225.068 64.5633C227.933 64.5893 230.038 62.4002 230.057 59.3796C230.077 56.3526 227.991 54.1115 225.14 54.105V54.0985Z" fill="#3D3C42"/>
<path d="M190.979 80.8482C190.979 85.5381 187.549 89.0004 182.853 89.0523C178.007 89.1108 174.486 85.5836 174.545 80.7247C174.603 75.9763 177.987 72.7024 182.82 72.7284C187.614 72.7479 190.979 76.0997 190.979 80.8482ZM182.593 75.5736C179.8 75.6645 177.708 78.0225 177.767 81.0041C177.832 84.0441 179.943 86.1098 182.911 86.0513C185.808 85.9928 187.796 83.7778 187.718 80.6858C187.647 77.7107 185.412 75.4826 182.593 75.5736Z" fill="#3D3C42"/>
<path d="M192.843 80.8806C192.843 80.3415 192.733 79.7764 192.862 79.2632C193.382 77.2105 191.44 74.4368 193.915 73.1117C196.572 71.6891 202.593 73.3845 204.503 75.5086C208.394 79.8218 206.218 87.0646 200.605 88.4807C193.72 90.2151 192.836 89.3577 192.836 80.8806H192.843ZM196.104 80.9781C196.714 82.3617 194.798 84.934 197.247 85.6875C199.514 86.3891 201.703 85.3757 202.768 82.8878C203.567 81.0236 203.262 79.2957 202.125 77.7042C200.82 75.8789 198.787 75.5346 196.916 76.0543C195.324 76.496 196.39 78.2758 196.123 79.4256C196.032 79.8348 196.11 80.283 196.11 80.9716L196.104 80.9781Z" fill="#3D3C42"/>
<path d="M195.805 67.2135C194.727 67.2135 193.649 67.181 192.571 67.2265C191.434 67.2719 191.46 66.5119 191.408 65.7324C191.349 64.836 191.577 64.3034 192.629 64.3358C194.246 64.3878 195.864 64.3358 197.481 64.3488C198.716 64.3618 199.696 63.9006 199.761 62.6015C199.826 61.2503 198.832 60.8086 197.605 60.7761C196.526 60.7437 195.429 60.8021 194.383 60.5943C191.927 60.1071 190.674 58.5351 190.739 56.0082C190.797 53.5009 192.129 51.8704 194.552 51.5326C196.565 51.2533 198.644 51.4547 200.69 51.4092C201.619 51.3897 202.054 51.7015 202.054 52.7019C202.054 53.7022 201.866 54.3908 200.684 54.3843C199.17 54.3778 197.663 54.3713 196.15 54.4103C195.123 54.4363 194.143 54.6571 194.11 55.9498C194.078 57.21 194.98 57.5672 196.033 57.6452C196.786 57.6971 197.546 57.6257 198.293 57.6777C201.457 57.9115 203.295 59.7563 203.159 62.5235C203.016 65.3947 201.19 67.0771 198.066 67.207C197.312 67.2395 196.552 67.207 195.799 67.207L195.805 67.2135Z" fill="#3D3C42"/>
<path d="M211.993 51.4092C213.071 52.0848 215.754 50.0451 215.812 52.8513C215.871 55.7549 213.188 53.8906 211.804 54.3648C211.22 54.5662 210.518 54.3973 209.868 54.4363C208.888 54.4882 208.16 54.9754 208.115 55.9693C208.056 57.158 208.888 57.6842 209.979 57.7426C211.168 57.8011 212.356 57.8141 213.545 57.7556C214.597 57.7036 215.156 57.97 215.117 59.1717C215.085 60.2435 214.734 60.7567 213.591 60.6917C212.408 60.6268 211.213 60.6527 210.024 60.7047C208.901 60.7502 208.128 61.3933 208.121 62.504C208.121 63.5953 208.842 64.2904 209.979 64.3294C211.492 64.3813 213.006 64.3813 214.519 64.3618C215.403 64.3553 215.949 64.5697 215.936 65.6155C215.916 66.6289 215.689 67.2784 214.493 67.2395C212.551 67.1745 210.583 67.3564 208.667 67.1031C205.997 66.7523 204.185 64.1735 205.049 61.6336C205.64 59.8927 205.412 58.5156 205.003 56.8462C204.159 53.358 206.686 51.4222 211.986 51.4222L211.993 51.4092Z" fill="#3D3C42"/>
<path d="M214.721 88.8184C210.115 88.8184 207.374 87.0581 207.868 83.9726C208.219 81.803 208.433 79.9062 207.9 77.6717C207.342 75.3137 209.095 73.5339 211.518 73.1376C213.415 72.8258 215.396 73.0012 217.339 72.9557C218.404 72.9297 218.891 73.3974 218.872 74.5147C218.852 75.7359 218.131 75.9048 217.17 75.8918C215.871 75.8788 214.578 75.8593 213.279 75.8983C212.246 75.9308 211.259 76.1971 211.22 77.4638C211.174 78.9059 212.207 79.2177 213.396 79.2436C214.37 79.2631 215.344 79.2956 216.312 79.2566C217.469 79.2112 218.164 79.536 218.131 80.8741C218.105 82.1862 217.235 82.1278 216.351 82.1343C215.377 82.1343 214.403 82.1148 213.435 82.1603C212.259 82.2122 211.22 82.628 211.194 83.9726C211.168 85.3237 212.161 85.7914 213.363 85.8304C214.441 85.8629 215.526 85.8239 216.605 85.8434C217.637 85.8694 218.852 85.5511 218.872 87.2919C218.898 89.0198 217.728 88.7925 216.663 88.8055C216.013 88.812 215.364 88.8055 214.721 88.8055V88.8184Z" fill="#3D3C42"/>
<path d="M175.85 57.2879C175.85 55.7744 175.883 54.2673 175.844 52.7538C175.811 51.5261 176.539 51.3962 177.513 51.3897C178.533 51.3767 179.163 51.6236 179.144 52.8123C179.111 55.508 179.144 58.2103 179.15 60.906C179.163 63.0496 180.073 64.4852 182.372 64.4982C184.665 64.5177 185.633 63.0691 185.685 60.958C185.75 58.3662 185.737 55.7809 185.705 53.189C185.692 52.0718 185.854 51.3442 187.257 51.3832C188.504 51.4157 188.998 51.8704 188.972 53.1111C188.913 56.0212 189.102 58.9508 188.855 61.8479C188.543 65.4986 185.919 67.5837 182.216 67.5058C178.54 67.4278 176.136 65.1868 175.883 61.5037C175.785 60.1071 175.87 58.6975 175.87 57.2944H175.857L175.85 57.2879Z" fill="#3D3C42"/>
<path d="M261.822 86.0708C258.97 86.1422 256.768 83.9596 256.703 80.9781C256.631 78.081 258.821 75.6385 261.562 75.5541C264.277 75.4696 266.596 77.8146 266.667 80.7182C266.745 83.7128 264.68 85.9928 261.822 86.0708Z" fill="white"/>
<path d="M226.959 75.9179C228.901 75.8659 230.584 76.2037 230.59 78.3473C230.597 80.9846 228.498 80.7832 226.634 80.9456C224.439 81.134 224.653 79.7829 224.543 78.3083C224.38 76.2362 225.205 75.5541 226.959 75.9179Z" fill="white"/>
<path d="M225.14 54.0986C227.992 54.1115 230.07 56.3461 230.057 59.3731C230.038 62.3937 227.933 64.5828 225.069 64.5568C222.256 64.5308 220.106 62.2443 220.112 59.2952C220.125 56.3591 222.327 54.0856 225.14 54.0921V54.0986Z" fill="white"/>
<path d="M182.586 75.5736C185.405 75.4827 187.639 77.7107 187.711 80.6858C187.789 83.7778 185.801 85.9864 182.904 86.0513C179.935 86.1163 177.824 84.0441 177.759 81.0041C177.694 78.0225 179.792 75.6646 182.586 75.5736Z" fill="white"/>
<path d="M196.104 80.978C196.104 80.2895 196.026 79.8413 196.117 79.432C196.383 78.2823 195.311 76.4959 196.909 76.0607C198.786 75.541 200.813 75.8853 202.119 77.7106C203.255 79.3021 203.561 81.03 202.762 82.8943C201.696 85.3822 199.507 86.3955 197.24 85.694C194.791 84.9405 196.708 82.3681 196.097 80.9845L196.104 80.978Z" fill="white"/>
</g>
<defs>
<clipPath id="clip0_1493_157209">
<rect width="240" height="38.3382" fill="white" transform="translate(30 51)"/>
</clipPath>
</defs>
</svg>
