<svg width="552" height="504" viewBox="0 0 552 504" fill="none" xmlns="http://www.w3.org/2000/svg">
<g style="mix-blend-mode:screen" opacity="0.08">
<path d="M514.193 368.302L492.528 355.799L522.614 338.44L544.279 350.943L514.193 368.302Z" fill="#FCFCFC"/>
</g>
<g style="mix-blend-mode:screen" opacity="0.08">
<path d="M523.147 113.471L359.856 19.2469C357.726 18.0147 356.004 19.3194 356.004 22.1642V141.648L527.009 240.329V120.846C527.009 118.01 525.278 114.712 523.147 113.48V113.471Z" fill="#FCFCFC"/>
</g>
<g style="mix-blend-mode:screen" opacity="0.08">
<path d="M548.14 95.6863L384.858 1.46207C382.727 0.229906 380.996 1.53455 380.996 4.37939V123.863L552.001 222.545V103.052C552.001 100.216 550.279 96.9184 548.14 95.6863Z" fill="#FCFCFC"/>
</g>
<g style="mix-blend-mode:screen" opacity="0.08">
<path d="M294.291 137.544L168.682 65.0543C167.041 64.1121 165.718 65.1087 165.718 67.2922V159.206L297.264 235.12V143.206C297.264 141.023 295.932 138.486 294.3 137.544H294.291Z" fill="#FCFCFC"/>
</g>
<g style="mix-blend-mode:multiply" opacity="0.42">
<path d="M477.797 248.076C477.815 243.165 474.352 237.168 470.074 234.703L463.357 230.825V408.846L326.48 490.513L95.3126 354.875L91.016 357.367C88.8948 358.599 87.8343 360.212 87.8433 361.824V361.806L87.8252 367.206C87.8252 368.837 88.8948 370.468 91.0522 371.709L316.092 501.566C320.37 504.039 327.287 504.03 331.538 501.566L473.201 419.283L473.219 414.227L477.334 411.836L477.797 248.076Z" fill="#8FA6B5"/>
</g>
<path d="M510.067 264.556L339.062 165.874V49.453L510.067 148.126V264.556Z" fill="#E4F2FD"/>
<path d="M506.205 137.707L342.914 43.4824C340.784 42.2503 339.053 43.5549 339.053 46.3998V49.5164L510.058 148.198V145.081C510.058 142.246 508.327 138.948 506.196 137.716L506.205 137.707Z" fill="#011C53"/>
<path d="M350.737 52.4428C350.737 53.4756 350.012 53.9015 349.115 53.385C348.217 52.8686 347.492 51.6093 347.492 50.5674C347.492 49.5255 348.217 49.1087 349.115 49.6251C350.012 50.1415 350.737 51.4009 350.737 52.4428Z" fill="#82E8C1"/>
<path d="M355.985 55.4688C355.985 56.5017 355.26 56.9275 354.363 56.4111C353.465 55.8947 352.74 54.6353 352.74 53.5934C352.74 52.5515 353.465 52.1348 354.363 52.6512C355.26 53.1676 355.985 54.4269 355.985 55.4688Z" fill="#82E8C1"/>
<path d="M361.234 58.4949C361.234 59.5277 360.509 59.9536 359.612 59.4371C358.714 58.9207 357.989 57.6614 357.989 56.6195C357.989 55.5776 358.714 55.1608 359.612 55.6772C360.509 56.1936 361.234 57.453 361.234 58.4949Z" fill="#82E8C1"/>
<path d="M339.062 165.874L510.067 264.556V203.328C510.067 203.328 504.139 222.59 492.808 216.058C479.265 208.248 478.196 184.329 469.729 179.446C461.48 174.69 458.942 193.435 446.65 186.341C434.468 179.31 436.879 148.968 423.572 141.285C409.793 133.331 413.283 178.305 400.493 170.93C389.742 164.724 388.156 140.243 377.596 134.146C367.661 128.411 367.072 151.061 352.722 142.78C347.818 139.954 341.817 129.39 339.053 119.306V165.874H339.062Z" fill="url(#paint0_linear_1097_230176)"/>
<path d="M384.729 89.4439L347.482 67.9445V64.2389L384.729 85.7384V89.4439Z" fill="#85A8FF"/>
<path d="M400.511 107.301L347.482 76.7055V74.6942L400.511 105.299V107.301Z" fill="#C5D5DD"/>
<path d="M400.511 111.695L347.482 81.0996V79.0974L400.511 109.693V111.695Z" fill="#C5D5DD"/>
<path d="M390.395 110.264L347.482 85.4937V83.4915L390.395 108.253V110.264Z" fill="#C5D5DD"/>
<path d="M427.524 132.687L420.118 128.411V126.409L427.524 130.685V132.687Z" fill="#C5D5DD"/>
<path d="M354.644 101.331H354.073V174.699H354.644V101.331Z" fill="#626BC1"/>
<path d="M377.714 114.649H377.143V188.017H377.714V114.649Z" fill="#626BC1"/>
<path d="M400.792 127.967H400.221V201.335H400.792V127.967Z" fill="#626BC1"/>
<path d="M423.871 141.276H423.3V214.644H423.871V141.276Z" fill="#626BC1"/>
<path d="M446.94 154.595H446.369V227.963H446.94V154.595Z" fill="#626BC1"/>
<path d="M470.019 167.913H469.448V241.281H470.019V167.913Z" fill="#626BC1"/>
<path d="M493.097 181.231H492.526V254.599H493.097V181.231Z" fill="#626BC1"/>
<path d="M420.554 139.528C420.554 137.598 421.913 136.81 423.581 137.779C425.258 138.749 426.609 141.095 426.609 143.025C426.609 144.955 425.249 145.743 423.581 144.773C421.904 143.804 420.554 141.457 420.554 139.528Z" fill="#F86174"/>
<path d="M231.8 267.047L472.34 405.847L330.677 488.13C326.426 490.603 319.509 490.603 315.231 488.13L90.1913 358.273C85.9037 355.799 85.8855 351.795 90.1369 349.321L231.8 267.038V267.047ZM232.779 412.905L243.974 406.4L164.576 360.583L153.381 367.088L232.779 412.905ZM278.891 423.931L290.086 417.426L243.339 390.454L232.144 396.959L278.891 423.931ZM292.352 416.112L303.547 409.607L273.126 392.058L261.931 398.563L292.352 416.112ZM178.073 350.164L189.268 343.659L158.847 326.11L147.652 332.615L178.073 350.164ZM237.619 355.972L226.415 362.486L240.511 370.622L251.715 364.107L237.619 355.972ZM283.731 366.998L272.527 373.512L286.623 381.648L297.827 375.133L283.731 366.998ZM270.27 374.816L259.066 381.331L273.162 389.466L284.366 382.952L270.27 374.816ZM251.08 348.162L239.876 354.676L253.972 362.812L265.176 356.298L251.08 348.162ZM319.274 400.492L330.478 393.978L316.382 385.842L305.178 392.357L319.274 400.492ZM305.813 408.311L317.017 401.797L302.921 393.661L291.717 400.175L305.813 408.311ZM267.406 357.584L256.202 364.098L270.297 372.234L281.501 365.72L267.406 357.584ZM253.945 365.403L242.741 371.917L256.836 380.053L268.04 373.539L253.945 365.403ZM384.576 438.173L395.78 431.659L381.684 423.523L370.48 430.037L384.576 438.173ZM221.294 346.558L210.09 353.072L224.185 361.208L235.389 354.694L221.294 346.558ZM371.115 445.992L382.319 439.478L368.223 431.342L357.019 437.856L371.115 445.992ZM234.755 338.739L223.551 345.254L237.646 353.389L248.85 346.875L234.755 338.739ZM191.534 342.363L202.738 335.849L188.643 327.713L177.439 334.227L191.534 342.363ZM338.464 427.147L349.668 420.633L335.572 412.497L324.368 419.011L338.464 427.147ZM351.925 419.328L363.129 412.814L349.033 404.678L337.829 411.192L351.925 419.328ZM204.995 334.545L216.199 328.03L202.104 319.895L190.9 326.409L204.995 334.545ZM354.789 436.569L365.993 430.055L351.907 421.928L340.703 428.443L354.789 436.569ZM368.25 428.751L379.454 422.236L365.368 414.11L354.164 420.624L368.25 428.751ZM172.326 318.3L161.122 324.814L175.209 332.941L186.413 326.427L172.326 318.3ZM218.438 329.326L207.234 335.84L221.321 343.967L232.525 337.453L218.438 329.326ZM185.787 310.481L174.583 316.995L188.67 325.122L199.874 318.608L185.787 310.481ZM204.977 337.136L193.773 343.65L207.86 351.777L219.064 345.263L204.977 337.136ZM286.605 384.239L275.401 390.753L289.487 398.88L300.691 392.366L286.605 384.239ZM300.066 376.42L288.862 382.934L302.948 391.061L314.152 384.547L300.066 376.42ZM264.532 340.343L253.337 346.848L267.433 354.984L278.628 348.479L264.532 340.343ZM297.183 359.188L285.988 365.693L300.084 373.829L311.279 367.324L297.183 359.188ZM332.735 392.665L343.93 386.16L329.834 378.024L318.63 384.529L332.726 392.665H332.735ZM280.858 349.756L269.654 356.261L283.749 364.397L294.944 357.892L280.849 349.756H280.858ZM248.207 330.912L237.012 337.417L251.107 345.552L262.302 339.047L248.207 330.912ZM398.037 430.336L409.232 423.831L395.136 415.695L383.932 422.2L398.028 430.336H398.037ZM210.706 371.6L199.511 378.105L213.607 386.241L224.802 379.736L210.706 371.6ZM283.985 329.036L272.79 335.541L286.886 343.677L298.081 337.172L283.985 329.036ZM256.818 382.626L245.623 389.131L259.719 397.267L270.914 390.762L256.818 382.626ZM316.636 347.881L305.441 354.386L319.537 362.522L330.732 356.017L316.636 347.881ZM224.167 363.781L212.972 370.286L227.068 378.422L238.263 371.917L224.167 363.781ZM218.456 326.708L229.651 320.203L215.556 312.067L204.352 318.572L218.447 326.708H218.456ZM365.386 411.491L376.581 404.986L362.485 396.85L351.29 403.355L365.386 411.491ZM265.448 431.731L276.643 425.226L262.547 417.09L251.352 423.596L265.448 431.731ZM352.188 381.349L363.383 374.844L349.287 366.708L338.092 373.213L352.188 381.349ZM344.211 461.593L355.406 455.088L341.31 446.952L330.115 453.457L344.211 461.593ZM227.032 381.004L215.837 387.509L229.932 395.645L241.127 389.14L227.032 381.004ZM194.381 362.16L183.186 368.665L197.281 376.801L208.476 370.295L194.381 362.16ZM357.672 453.765L368.867 447.26L354.771 439.124L343.576 445.629L357.672 453.765ZM207.842 354.341L196.647 360.846L210.742 368.982L221.937 362.477L207.842 354.341ZM267.66 319.596L256.465 326.101L270.56 334.237L281.755 327.731L267.66 319.596ZM300.31 338.44L289.116 344.945L303.211 353.081L314.406 346.576L300.31 338.44ZM240.493 373.186L229.298 379.691L243.393 387.827L254.588 381.321L240.493 373.186ZM330.75 469.403L341.945 462.898L327.849 454.762L316.654 461.267L330.75 469.403ZM417.49 419.02L428.684 412.515L414.589 404.379L403.394 410.884L417.49 419.02ZM164.63 357.956L175.825 351.451L161.73 343.315L150.535 349.82L164.63 357.956ZM311.56 442.739L322.755 436.234L308.659 428.098L297.464 434.603L311.56 442.739ZM298.099 450.558L309.294 444.053L295.198 435.917L284.003 442.422L298.099 450.558ZM237.9 315.392L249.095 308.887L234.999 300.751L223.805 307.256L237.9 315.392ZM151.16 365.774L162.355 359.269L148.26 351.133L137.065 357.639L151.16 365.774ZM325.012 434.93L336.207 428.424L322.111 420.289L310.916 426.794L325.012 434.93ZM384.83 400.184L396.024 393.679L381.929 385.543L370.734 392.049L384.83 400.184ZM381.702 420.896L392.906 414.391L378.82 406.264L367.616 412.769L381.702 420.896ZM231.881 321.471L220.677 327.976L234.764 336.103L245.959 329.598L231.872 321.471H231.881ZM313.509 368.574L302.314 375.079L316.4 383.206L327.595 376.701L313.509 368.574ZM199.23 302.626L188.035 309.131L202.122 317.258L213.317 310.753L199.23 302.626ZM327.876 452.153L339.071 445.648L324.985 437.521L313.79 444.026L327.876 452.153ZM341.337 444.334L352.532 437.829L338.446 429.702L327.251 436.207L341.337 444.334ZM314.415 459.971L325.61 453.466L311.523 445.34L300.329 451.845L314.415 459.971ZM401.155 409.589L412.35 403.084L398.263 394.957L387.069 401.462L401.155 409.589ZM148.296 348.524L159.491 342.019L145.404 333.892L134.209 340.397L148.296 348.524ZM178.055 352.728L166.86 359.233L180.947 367.36L192.142 360.855L178.055 352.728ZM191.516 344.909L180.321 351.414L194.408 359.541L205.603 353.036L191.516 344.909ZM134.835 356.334L146.03 349.829L131.943 341.702L120.748 348.207L134.835 356.334ZM251.334 310.164L240.139 316.669L254.226 324.796L265.421 318.291L251.334 310.164ZM368.504 390.744L379.699 384.239L365.612 376.112L354.418 382.617L368.504 390.744ZM332.961 357.267L321.767 363.772L335.853 371.899L347.048 365.394L332.961 357.267ZM249.113 422.282L260.308 415.777L246.222 407.65L235.027 414.155L249.113 422.282ZM218.683 291.319L207.488 297.824L221.575 305.951L232.77 299.446L218.683 291.319Z" fill="#C6D0DC"/>
<path d="M330.677 488.13C326.426 490.603 319.51 490.603 315.231 488.13L90.1914 358.273C88.0341 357.032 86.9554 355.401 86.9644 353.77L86.9463 359.17C86.9463 360.801 88.0159 362.431 90.1733 363.673L315.213 493.53C319.492 496.003 326.408 495.994 330.659 493.53L472.322 411.247L472.34 405.847L330.677 488.13Z" fill="#E4F2FD"/>
<path d="M465.079 228.714C469.358 231.188 472.811 237.177 472.802 242.087L472.34 405.847L231.8 267.047L232.262 103.288C232.28 98.3771 235.752 96.3839 240.04 98.8573L465.079 228.714ZM464.227 387.845L464.644 241.444L240.393 112.04L239.976 258.44L464.227 387.845ZM352.541 168.103C351.336 167.405 350.348 167.967 350.348 169.353C350.348 170.739 351.318 172.434 352.532 173.131C353.738 173.829 354.726 173.267 354.726 171.881C354.726 170.495 353.756 168.801 352.541 168.103Z" fill="#011C53"/>
<path d="M464.644 241.444L464.236 387.845L239.985 258.44L240.402 112.04L464.644 241.444Z" fill="#C6D0DC"/>
<path d="M469.748 226.006L244.708 96.1483C242.551 94.9071 240.602 94.7893 239.188 95.6047L234.52 98.3137C235.925 97.4983 237.883 97.607 240.04 98.8573L465.08 228.715C469.358 231.188 472.812 237.177 472.803 242.087L472.34 405.847L477.009 403.138L477.471 239.378C477.489 234.468 474.026 228.47 469.748 226.006Z" fill="#E4F2FD"/>
<path d="M276.018 143.279L155.339 73.6432C153.762 72.7372 152.493 73.6976 152.493 75.7995V79.7044L278.873 152.628V148.724C278.873 146.622 277.595 144.185 276.027 143.279H276.018Z" fill="#011C53"/>
<path d="M161.123 81.0181C161.123 81.7882 160.588 82.0962 159.918 81.7157C159.256 81.3352 158.712 80.402 158.712 79.6319C158.712 78.8618 159.247 78.5538 159.918 78.9343C160.579 79.3148 161.123 80.248 161.123 81.0181Z" fill="#82E8C1"/>
<path d="M164.993 83.265C164.993 84.0351 164.458 84.3431 163.788 83.9626C163.126 83.5821 162.582 82.6489 162.582 81.8788C162.582 81.1087 163.117 80.8007 163.788 81.1812C164.449 81.5617 164.993 82.4949 164.993 83.265Z" fill="#82E8C1"/>
<path d="M168.873 85.5028C168.873 86.2729 168.338 86.5809 167.668 86.2004C167.006 85.8199 166.462 84.8867 166.462 84.1166C166.462 83.3465 166.997 83.0385 167.668 83.419C168.329 83.7995 168.873 84.7327 168.873 85.5028Z" fill="#82E8C1"/>
<path opacity="0.5" d="M278.873 238.671L152.493 165.738V79.6953L278.873 152.619V238.671Z" fill="#E4F2FD"/>
<path d="M269.01 158.001L192.332 113.752V111.695L269.01 155.944V158.001Z" fill="#626BC1"/>
<path d="M269.01 162.504L192.332 118.255V116.198L269.01 160.447V162.504Z" fill="#626BC1"/>
<path d="M269.01 167.007L192.332 122.758V120.701L269.01 164.95V167.007Z" fill="#626BC1"/>
<path d="M249.304 160.139L192.332 127.26V125.213L249.304 158.083V160.139Z" fill="#626BC1"/>
<path d="M269.01 178.676L192.332 134.427V132.379L269.01 176.619V178.676Z" fill="#ACBFC6"/>
<path d="M269.01 183.179L192.332 138.93V136.882L269.01 181.131V183.179Z" fill="#ACBFC6"/>
<path d="M269.01 187.682L192.332 143.442V141.385L269.01 185.634V187.682Z" fill="#ACBFC6"/>
<path d="M269.01 195.591L192.332 151.342V149.294L269.01 193.534V195.591Z" fill="#ACBFC6"/>
<path d="M269.01 200.094L192.332 155.854V153.797L269.01 198.046V200.094Z" fill="#ACBFC6"/>
<path d="M214.504 173.149L192.332 160.357V158.3L214.504 171.093V173.149Z" fill="#ACBFC6"/>
<path d="M186.259 148.86L162.591 135.197V96.9003L186.259 110.554V148.86Z" fill="#85A8FF"/>
<path d="M408.126 333.62L294.301 267.944V175.088L408.126 240.764V333.62Z" fill="#E4F2FD"/>
<path d="M405.053 232.456L297.382 170.323C295.687 169.344 294.31 170.386 294.31 172.651V175.134L408.135 240.819V238.336C408.135 236.071 406.757 233.444 405.062 232.465L405.053 232.456Z" fill="#011C53"/>
<path d="M303.61 177.471C303.61 178.296 303.03 178.631 302.314 178.223C301.598 177.806 301.018 176.801 301.018 175.976C301.018 175.152 301.598 174.816 302.314 175.224C303.03 175.641 303.61 176.647 303.61 177.471Z" fill="#82E8C1"/>
<path d="M307.799 179.89C307.799 180.715 307.218 181.05 306.502 180.642C305.786 180.234 305.206 179.22 305.206 178.395C305.206 177.571 305.786 177.235 306.502 177.643C307.218 178.06 307.799 179.066 307.799 179.89Z" fill="#82E8C1"/>
<path d="M311.986 182.3C311.986 183.124 311.406 183.46 310.69 183.052C309.974 182.635 309.394 181.63 309.394 180.805C309.394 179.981 309.974 179.645 310.69 180.053C311.406 180.47 311.986 181.476 311.986 182.3Z" fill="#82E8C1"/>
<path d="M377.66 296.737L324.768 266.214V208.619L377.66 239.143V296.737Z" fill="white"/>
<path d="M373.037 249.888L328.901 224.42V219.011L373.037 244.479V249.888Z" fill="#E4F2FD"/>
<path d="M347.148 262.816L340.576 259.029V257.426L347.148 261.213V262.816Z" fill="#E4F2FD"/>
<path d="M360.791 270.699L348.472 263.587V261.983L360.791 269.095V270.699Z" fill="#E4F2FD"/>
<path d="M373.037 261.104L328.901 235.636V229.494L373.037 254.97V261.104Z" fill="#E4F2FD"/>
<path d="M371.723 270.454L330.216 246.499C329.491 246.083 328.901 244.959 328.901 243.99V241.353C328.901 240.384 329.491 239.94 330.216 240.357L371.723 264.311C372.448 264.728 373.037 265.852 373.037 266.821V269.457C373.037 270.427 372.448 270.871 371.723 270.454Z" fill="#F86174"/>
<path d="M371.723 286.046L330.216 262.092C329.491 261.675 328.901 260.551 328.901 259.582V256.946C328.901 255.976 329.491 255.532 330.216 255.949L371.723 279.904C372.448 280.32 373.037 281.444 373.037 282.413V285.05C373.037 286.019 372.448 286.463 371.723 286.046Z" fill="#85A8FF"/>
<path d="M232.76 299.491L221.556 305.996L207.47 297.861L218.674 291.355L232.76 299.491Z" fill="#E4F2FD"/>
<path d="M249.085 308.914L237.891 315.419L223.795 307.283L234.99 300.778L249.085 308.914Z" fill="#E4F2FD"/>
<path d="M213.308 310.78L202.113 317.285L188.018 309.158L199.222 302.653L213.308 310.78Z" fill="#E4F2FD"/>
<path d="M265.412 318.327L254.208 324.832L240.121 316.705L251.325 310.2L265.412 318.327Z" fill="#E4F2FD"/>
<path d="M186.395 326.418L175.191 332.923L161.104 324.796L172.308 318.282L186.395 326.418Z" fill="#E4F2FD"/>
<path d="M216.19 328.021L204.977 334.526L190.882 326.4L202.095 319.885L216.19 328.021Z" fill="#E4F2FD"/>
<path d="M245.958 329.625L234.764 336.13L220.668 328.003L231.872 321.498L245.958 329.625Z" fill="#E4F2FD"/>
<path d="M262.293 339.047L251.089 345.553L236.993 337.417L248.188 330.912L262.293 339.047Z" fill="#E4F2FD"/>
<path d="M314.388 346.594L303.193 353.1L289.098 344.964L300.293 338.459L314.388 346.594Z" fill="#E4F2FD"/>
<path d="M248.841 346.857L237.628 353.371L223.532 345.235L234.745 338.73L248.841 346.857Z" fill="#E4F2FD"/>
<path d="M235.38 354.676L224.167 361.19L210.071 353.054L221.284 346.54L235.38 354.676Z" fill="#E4F2FD"/>
<path d="M330.722 356.017L319.518 362.522L305.423 354.386L316.618 347.881L330.722 356.017Z" fill="#E4F2FD"/>
<path d="M294.944 357.892L283.74 364.397L269.645 356.261L280.839 349.756L294.944 357.892Z" fill="#E4F2FD"/>
<path d="M251.706 364.098L240.502 370.613L226.406 362.477L237.61 355.972L251.706 364.098Z" fill="#E4F2FD"/>
<path d="M347.038 365.43L335.844 371.935L321.748 363.808L332.952 357.303L347.038 365.43Z" fill="#E4F2FD"/>
<path d="M281.492 365.702L270.279 372.216L256.184 364.08L267.397 357.566L281.492 365.702Z" fill="#E4F2FD"/>
<path d="M311.269 367.315L300.074 373.82L285.97 365.684L297.174 359.179L311.269 367.315Z" fill="#E4F2FD"/>
<path d="M238.254 371.917L227.05 378.422L212.954 370.286L224.149 363.781L238.254 371.917Z" fill="#E4F2FD"/>
<path d="M268.031 373.521L256.818 380.026L242.723 371.899L253.936 365.385L268.031 373.521Z" fill="#E4F2FD"/>
<path d="M363.374 374.853L352.17 381.358L338.074 373.231L349.269 366.726L363.374 374.853Z" fill="#E4F2FD"/>
<path d="M297.817 375.124L286.613 381.639L272.518 373.503L283.722 366.989L297.817 375.124Z" fill="#E4F2FD"/>
<path d="M327.586 376.728L316.391 383.233L302.305 375.106L313.5 368.601L327.586 376.728Z" fill="#E4F2FD"/>
<path d="M284.356 382.943L273.152 389.457L259.057 381.321L270.261 374.807L284.356 382.943Z" fill="#E4F2FD"/>
<path d="M379.69 384.275L368.495 390.78L354.399 382.653L365.603 376.148L379.69 384.275Z" fill="#E4F2FD"/>
<path d="M314.143 384.547L302.93 391.052L288.844 382.925L300.048 376.411L314.143 384.547Z" fill="#E4F2FD"/>
<path d="M343.921 386.15L332.717 392.656L318.621 384.52L329.825 378.015L343.921 386.15Z" fill="#E4F2FD"/>
<path d="M241.109 389.158L229.914 395.663L215.818 387.528L227.013 381.022L241.109 389.158Z" fill="#E4F2FD"/>
<path d="M300.682 392.357L289.469 398.871L275.383 390.744L286.596 384.23L300.682 392.357Z" fill="#E4F2FD"/>
<path d="M396.026 393.697L384.822 400.203L370.727 392.067L381.921 385.562L396.026 393.697Z" fill="#E4F2FD"/>
<path d="M330.469 393.969L319.265 400.474L305.16 392.338L316.373 385.833L330.469 393.969Z" fill="#E4F2FD"/>
<path d="M317.008 401.788L305.804 408.293L291.708 400.157L302.912 393.652L317.008 401.788Z" fill="#E4F2FD"/>
<path d="M412.342 403.12L401.147 409.625L387.052 401.489L398.256 394.984L412.342 403.12Z" fill="#E4F2FD"/>
<path d="M376.571 404.995L365.367 411.5L351.271 403.364L362.475 396.859L376.571 404.995Z" fill="#E4F2FD"/>
<path d="M303.547 409.598L292.352 416.103L261.931 398.554L273.135 392.049L303.547 409.598Z" fill="#E4F2FD"/>
<path d="M428.667 412.542L417.473 419.047L403.377 410.912L414.572 404.406L428.667 412.542Z" fill="#E4F2FD"/>
<path d="M363.119 412.805L351.915 419.319L337.811 411.183L349.024 404.669L363.119 412.805Z" fill="#E4F2FD"/>
<path d="M392.89 414.409L381.695 420.914L367.608 412.787L378.803 406.282L392.89 414.409Z" fill="#E4F2FD"/>
<path d="M290.094 417.417L278.89 423.922L232.144 396.95L243.348 390.445L290.094 417.417Z" fill="#E4F2FD"/>
<path d="M349.659 420.624L338.455 427.138L324.359 419.002L335.563 412.488L349.659 420.624Z" fill="#E4F2FD"/>
<path d="M379.445 422.227L368.232 428.733L354.146 420.606L365.349 414.092L379.445 422.227Z" fill="#E4F2FD"/>
<path d="M409.224 423.84L398.02 430.345L383.925 422.209L395.129 415.704L409.224 423.84Z" fill="#E4F2FD"/>
<path d="M276.634 425.235L265.43 431.74L251.334 423.605L262.538 417.099L276.634 425.235Z" fill="#E4F2FD"/>
<path d="M336.198 428.443L325.003 434.948L310.907 426.812L322.102 420.307L336.198 428.443Z" fill="#E4F2FD"/>
<path d="M365.984 430.046L354.771 436.551L340.685 428.424L351.898 421.91L365.984 430.046Z" fill="#E4F2FD"/>
<path d="M395.771 431.65L384.568 438.155L370.463 430.028L381.676 423.514L395.771 431.65Z" fill="#E4F2FD"/>
<path d="M322.746 436.261L311.542 442.767L297.446 434.631L308.641 428.126L322.746 436.261Z" fill="#E4F2FD"/>
<path d="M352.523 437.865L341.319 444.37L327.232 436.234L338.436 429.729L352.523 437.865Z" fill="#E4F2FD"/>
<path d="M382.309 439.469L371.105 445.974L357.01 437.838L368.214 431.333L382.309 439.469Z" fill="#E4F2FD"/>
<path d="M309.284 444.08L298.08 450.585L283.984 442.449L295.188 435.944L309.284 444.08Z" fill="#E4F2FD"/>
<path d="M339.062 445.675L327.867 452.18L313.771 444.053L324.975 437.548L339.062 445.675Z" fill="#E4F2FD"/>
<path d="M368.848 447.287L357.653 453.793L343.558 445.657L354.752 439.152L368.848 447.287Z" fill="#E4F2FD"/>
<path d="M325.601 453.494L314.406 459.999L300.319 451.872L311.514 445.367L325.601 453.494Z" fill="#E4F2FD"/>
<path d="M355.396 455.097L344.192 461.602L330.097 453.475L341.292 446.97L355.396 455.097Z" fill="#E4F2FD"/>
<path d="M341.935 462.916L330.731 469.421L316.636 461.285L327.84 454.78L341.935 462.916Z" fill="#E4F2FD"/>
<path d="M199.856 318.599L188.652 325.104L174.565 316.977L185.769 310.463L199.856 318.599Z" fill="#E4F2FD"/>
<path d="M229.642 320.212L218.438 326.717L204.343 318.581L215.538 312.076L229.642 320.212Z" fill="#E4F2FD"/>
<path d="M281.737 327.75L270.542 334.255L256.446 326.119L267.641 319.614L281.737 327.75Z" fill="#E4F2FD"/>
<path d="M202.729 335.84L191.526 342.345L177.421 334.209L188.634 327.704L202.729 335.84Z" fill="#E4F2FD"/>
<path d="M298.071 337.172L286.867 343.677L272.771 335.541L283.975 329.036L298.071 337.172Z" fill="#E4F2FD"/>
<path d="M232.506 337.435L221.302 343.949L207.216 335.822L218.42 329.308L232.506 337.435Z" fill="#E4F2FD"/>
<path d="M159.482 342.046L148.278 348.551L134.191 340.425L145.395 333.919L159.482 342.046Z" fill="#E4F2FD"/>
<path d="M189.268 343.659L178.073 350.164L147.652 332.606L158.847 326.101L189.268 343.659Z" fill="#E4F2FD"/>
<path d="M219.045 345.254L207.841 351.768L193.755 343.632L204.959 337.127L219.045 345.254Z" fill="#E4F2FD"/>
<path d="M278.619 348.47L267.424 354.975L253.319 346.839L264.523 340.334L278.619 348.47Z" fill="#E4F2FD"/>
<path d="M146.021 349.865L134.826 356.37L120.73 348.243L131.934 341.738L146.021 349.865Z" fill="#E4F2FD"/>
<path d="M175.807 351.469L164.612 357.974L150.517 349.847L161.711 343.342L175.807 351.469Z" fill="#E4F2FD"/>
<path d="M205.593 353.072L194.389 359.577L180.303 351.451L191.498 344.946L205.593 353.072Z" fill="#E4F2FD"/>
<path d="M265.167 356.289L253.963 362.794L239.867 354.658L251.071 348.153L265.167 356.289Z" fill="#E4F2FD"/>
<path d="M162.355 359.287L151.151 365.793L137.056 357.657L148.251 351.152L162.355 359.287Z" fill="#E4F2FD"/>
<path d="M192.132 360.891L180.928 367.396L166.842 359.269L178.046 352.764L192.132 360.891Z" fill="#E4F2FD"/>
<path d="M221.919 362.495L210.724 369L196.619 360.864L207.823 354.359L221.919 362.495Z" fill="#E4F2FD"/>
<path d="M208.458 370.314L197.264 376.819L183.168 368.683L194.363 362.178L208.458 370.314Z" fill="#E4F2FD"/>
<path d="M224.793 379.736L213.589 386.241L199.493 378.105L210.697 371.6L224.793 379.736Z" fill="#E4F2FD"/>
<path d="M254.57 381.34L243.375 387.845L229.271 379.709L240.474 373.204L254.57 381.34Z" fill="#E4F2FD"/>
<path d="M270.905 390.762L259.701 397.267L245.605 389.131L256.8 382.626L270.905 390.762Z" fill="#E4F2FD"/>
<path d="M243.982 406.4L232.778 412.905L153.381 367.088L164.585 360.583L243.982 406.4Z" fill="#E4F2FD"/>
<path d="M260.299 415.813L249.104 422.318L235.018 414.191L246.212 407.686L260.299 415.813Z" fill="#E4F2FD"/>
<path d="M352.531 173.512C353.927 174.318 355.051 173.666 355.06 172.071C355.06 170.477 353.936 168.529 352.55 167.722C351.163 166.916 350.03 167.568 350.021 169.163C350.021 170.758 351.145 172.705 352.531 173.512Z" fill="#82E8C1"/>
<g opacity="0.73">
<path opacity="0.8" d="M130.976 242.705C162.567 260.937 154.746 326.707 181.382 342.074C209.18 358.113 205.595 302.453 231.696 317.132C257.858 332.216 259.792 416.845 260.496 421.17L0.959961 271.406C1.34223 268.517 9.84383 222.081 29.4312 225.726C47.1072 229.019 54.6454 279.544 79.6151 295.545C99.0571 308.016 100.884 225.328 130.984 242.697L130.976 242.705Z" fill="#5D45FF"/>
</g>
<g opacity="0.6">
<g opacity="0.46">
<path d="M179.901 236.622C180.344 236.882 180.795 237.157 181.254 237.463C191.354 244.141 198.028 257.865 205.085 272.399C212.394 287.43 219.947 302.972 231.752 310.988C233.028 311.852 234.259 312.624 235.437 313.304C252.554 323.184 259.81 314.664 259.886 314.572L261.415 316.574C261.087 316.987 253.533 325.843 235.521 315.451C234.259 314.725 232.944 313.9 231.576 312.967C218.976 304.424 211.178 288.37 203.64 272.85C196.828 258.843 190.398 245.608 181.101 239.465C180.688 239.19 180.276 238.938 179.863 238.701C168.785 232.312 160.925 240.496 151.866 249.926C141.33 260.899 129.381 273.331 109.449 263.153C107.928 262.374 106.452 261.571 105.03 260.746C87.8283 250.82 77.3389 237.723 67.163 225.023C57.6751 213.178 47.8662 200.937 32.4991 191.217C32.0174 190.911 31.5358 190.621 31.0541 190.346C15.1595 181.176 1.81073 187.687 1.67311 187.763L0.43457 185.532C1.01562 185.241 14.4255 178.662 31.0312 188.245C31.5511 188.543 32.0709 188.856 32.5908 189.192C48.4014 199.187 58.4091 211.673 68.0804 223.754C78.4704 236.722 88.3252 249.032 104.923 258.606C106.345 259.424 107.821 260.226 109.342 261.006C128.402 270.741 140.084 258.584 150.382 247.863C159.358 238.525 167.852 229.684 179.878 236.622H179.901Z" fill="#89FCE5"/>
</g>
<path d="M181.23 231.12C184.066 232.756 186.36 236.729 186.352 239.992C186.345 243.255 184.036 244.569 181.192 242.926C178.348 241.283 176.062 237.317 176.069 234.055C176.077 230.799 178.386 229.477 181.23 231.12Z" fill="white"/>
<path d="M29.7307 289.157L28.9814 288.782V154.24L29.7307 154.615V289.157Z" fill="white"/>
<path d="M80.343 318.041L79.5938 317.667V183.125L80.343 183.499V318.041Z" fill="white"/>
<path d="M125.206 343.907L124.449 343.533V208.991L125.206 209.365V343.907Z" fill="white"/>
<path d="M181.199 376.101L180.442 375.734V241.192L181.199 241.559V376.101Z" fill="white"/>
<path d="M231.812 405.879L231.055 405.505V270.963L231.812 271.337V405.879Z" fill="white"/>
<path d="M32.123 297.196L25.8691 293.589V291.9L32.123 295.499V297.196Z" fill="#C5D5DD"/>
<path d="M82.7208 324.98L76.4746 321.373V319.677L82.7208 323.283V324.98Z" fill="#C5D5DD"/>
<path d="M127.95 349.898L121.704 346.291V344.603L127.95 348.209V349.898Z" fill="#C5D5DD"/>
</g>
<defs>
<linearGradient id="paint0_linear_1097_230176" x1="339.062" y1="191.931" x2="510.067" y2="191.931" gradientUnits="userSpaceOnUse">
<stop stop-color="#5AA1E4"/>
<stop offset="1" stop-color="#72D4C7"/>
</linearGradient>
</defs>
</svg>
