<svg width="40" height="40" viewBox="0 0 40 40" fill="none" xmlns="http://www.w3.org/2000/svg">
<rect width="40" height="40" rx="8" fill="#5D45FF"/>
<path d="M28.0002 17.8667V27.4667C28.0002 27.7612 27.7614 28 27.4668 28H17.8668C17.5723 28 17.3335 27.7612 17.3335 27.4667V17.8667C17.3335 17.5721 17.5723 17.3333 17.8668 17.3333H27.4668C27.7614 17.3333 28.0002 17.5721 28.0002 17.8667Z" stroke="#F0EFF6" stroke-width="1.6" stroke-linecap="round" stroke-linejoin="round"/>
<path d="M22.6667 12.5333V22.1333C22.6667 22.4279 22.4279 22.6667 22.1333 22.6667H12.5333C12.2388 22.6667 12 22.4279 12 22.1333V12.5333C12 12.2388 12.2388 12 12.5333 12H22.1333C22.4279 12 22.6667 12.2388 22.6667 12.5333Z" stroke="#F0EFF6" stroke-width="1.6" stroke-linecap="round" stroke-linejoin="round"/>
</svg>
