<svg width="40" height="40" viewBox="0 0 40 40" fill="none" xmlns="http://www.w3.org/2000/svg">
<rect width="40" height="40" rx="8" fill="#F0EFF6"/>
<path d="M29 20V18C29 15.2386 26.7614 13 24 13H16C13.2386 13 11 15.2386 11 18C11 20.7614 13.2386 23 16 23H20" stroke="#5D45FF" stroke-width="1.6" stroke-linecap="round" stroke-linejoin="round"/>
<path d="M28.1241 27.1185L30 29M28.1241 27.1185C28.6654 26.5758 29 25.827 29 25C29 23.3431 27.6569 22 26 22C24.3431 22 23 23.3431 23 25C23 26.6569 24.3431 28 26 28C26.8299 28 27.581 27.663 28.1241 27.1185Z" stroke="#5D45FF" stroke-width="1.6" stroke-linecap="round" stroke-linejoin="round"/>
</svg>
