<svg width="40" height="40" viewBox="0 0 40 40" fill="none" xmlns="http://www.w3.org/2000/svg">
<circle cx="20" cy="20" r="20" fill="#5D45FF"/>
<path d="M14.9691 18.1575C14.8777 18.1198 14.7969 18.0601 14.7341 17.9837C14.6713 17.9072 14.6284 17.8164 14.6091 17.7194C14.5899 17.6224 14.5949 17.5221 14.6238 17.4274C14.6527 17.3328 14.7046 17.2468 14.7747 17.1771L19.5747 12.3771C19.6305 12.3212 19.6967 12.2769 19.7696 12.2466C19.8425 12.2164 19.9206 12.2008 19.9995 12.2008C20.0785 12.2008 20.1566 12.2164 20.2295 12.2466C20.3024 12.2769 20.3686 12.3212 20.4243 12.3771L25.2243 17.1771C25.337 17.2897 25.4003 17.4425 25.4003 17.6019C25.4003 17.7612 25.337 17.914 25.2243 18.0267C25.1117 18.1393 24.9589 18.2026 24.7995 18.2026C24.6402 18.2026 24.4874 18.1393 24.3747 18.0267L20.5995 14.2503L20.5995 27.2019C20.5995 27.361 20.5363 27.5136 20.4238 27.6261C20.3113 27.7387 20.1587 27.8019 19.9995 27.8019C19.8404 27.8019 19.6878 27.7387 19.5753 27.6261C19.4628 27.5136 19.3995 27.361 19.3995 27.2019L19.3995 14.2503L15.6243 18.0267C15.5404 18.111 15.4333 18.1684 15.3166 18.1917C15.2 18.215 15.079 18.2031 14.9691 18.1575Z" fill="white"/>
</svg>
