<svg width="40" height="40" viewBox="0 0 40 40" fill="none" xmlns="http://www.w3.org/2000/svg">
<path d="M22.4444 22.1374H13.8889C11.1888 22.1374 9 19.9485 9 17.2485C9 14.5485 11.1888 12.3596 13.8889 12.3596H22.4444M22.4444 22.1374V12.3596V22.1374ZM22.4444 22.1374L29.9028 26.3993C30.3917 26.6787 31 26.3257 31 25.7627V8.73442C31 8.17135 30.3917 7.81834 29.9028 8.09771L22.4444 12.3596V22.1374Z" stroke="#26262C" stroke-width="1.5"/>
<path d="M14.8141 28.6185L13.8887 22.1406H18.7776L19.6053 27.9341C19.8135 29.3919 18.6822 30.6962 17.2096 30.6962C16.0054 30.6962 14.9844 29.8107 14.8141 28.6185Z" stroke="#4F2CDE" stroke-width="1.5"/>
</svg>
