<svg width="24" height="24" viewBox="0 0 24 24" fill="none" xmlns="http://www.w3.org/2000/svg">
<path d="M21 7.3526V16.6466C21 16.8645 20.8819 17.0652 20.6914 17.1711L12.2914 21.8377C12.1102 21.9384 11.8898 21.9384 11.7086 21.8377L3.30863 17.1711C3.11816 17.0652 3.00002 16.8645 3.00002 16.6466L3 7.3526C3 7.1347 3.11814 6.93393 3.30862 6.82811L11.7086 2.16144C11.8898 2.06077 12.1102 2.06077 12.2914 2.16144L20.6914 6.82811C20.8818 6.93393 21 7.1347 21 7.3526Z" stroke="#21272A" stroke-width="1.5" stroke-linecap="round" stroke-linejoin="round"/>
<path d="M3.52844 7.29314L11.7086 11.8377C11.8898 11.9384 12.1102 11.9384 12.2914 11.8377L20.5 7.27734" stroke="#21272A" stroke-width="1.5" stroke-linecap="round" stroke-linejoin="round"/>
<path d="M12 21V12" stroke="#21272A" stroke-width="1.5" stroke-linecap="round" stroke-linejoin="round"/>
<path d="M11.6914 11.8276L3.89139 7.49433C3.49147 7.27216 3 7.56134 3 8.01883V16.6461C3 16.864 3.11813 17.0647 3.30861 17.1706L11.1086 21.5039C11.5085 21.7261 12 21.4369 12 20.9794V12.3521C12 12.1342 11.8819 11.9335 11.6914 11.8276Z" fill="#21272A" stroke="#21272A" stroke-width="1.5" stroke-linejoin="round"/>
</svg>
