<svg xmlns="http://www.w3.org/2000/svg" width="220" height="220" fill="none" viewBox="0 0 220 220">
  <rect width="220" height="220" fill="#fff" rx="12"/>
  <rect width="180" height="180" x="20" y="20" fill="#fff" rx="12"/>
  <path stroke="#F0EFF6" stroke-width="6" d="M30.731 23H189.27c1.379 0 3.258 1.042 4.965 4.115 1.651 2.971 2.766 7.28 2.766 12.202v141.366c0 4.923-1.115 9.231-2.766 12.202-1.707 3.073-3.586 4.115-4.965 4.115H30.731c-1.379 0-3.258-1.042-4.965-4.115-1.651-2.971-2.766-7.279-2.766-12.202V39.317c0-4.923 1.115-9.231 2.766-12.202C27.473 24.042 29.352 23 30.73 23Z"/>
  <path fill="#F0EFF6" d="m128.217 82.121 50.881 67.159h-61.427L97.52 122.695l30.697-40.574Zm-52.828 25.287 31.704 41.872H43.684l31.705-41.872Zm2.955-25.288c0 9.02-7.758 16.33-17.33 16.33s-17.33-7.31-17.33-16.33 7.758-16.33 17.33-16.33 17.33 7.31 17.33 16.33Z"/>
</svg>
