<svg width="36" height="36" viewBox="0 0 36 36" fill="none" xmlns="http://www.w3.org/2000/svg">
<path d="M5.78667 27.5357C4.54303 28.7531 4.54303 30.7283 5.78667 31.9466C7.03137 33.1649 9.04809 33.1649 10.2917 31.9466C11.5354 30.7283 11.5354 28.7529 10.2917 27.5357C9.04809 26.3162 7.03145 26.3162 5.78667 27.5357Z" fill="white"/>
<path d="M7.16592 19.2025C7.16592 17.2656 5.56153 15.6924 3.58296 15.6924C1.6044 15.6924 0 17.2656 0 19.2025C0 21.1415 1.6044 22.7126 3.58296 22.7126C5.56153 22.7126 7.16592 21.1417 7.16592 19.2025Z" fill="white"/>
<path d="M8.03871 4.76562C5.8405 4.76562 4.05798 6.5114 4.05798 8.66577C4.05798 10.8191 5.8405 12.5648 8.03871 12.5648C10.238 12.5648 12.0194 10.8191 12.0194 8.66577C12.0194 6.51133 10.238 4.76562 8.03871 4.76562Z" fill="white"/>
<path d="M18.7954 0C16.3777 0 14.4169 1.92149 14.4169 4.29018C14.4169 6.6588 16.3775 8.58029 18.7954 8.58029C21.2154 8.58029 23.1749 6.6588 23.1749 4.29018C23.1761 1.92149 21.2154 0 18.7954 0Z" fill="white"/>
<path d="M18.7955 30.54C17.2572 30.54 16.0102 31.7618 16.0102 33.2712C16.0102 34.7775 17.2573 36.0004 18.7955 36.0004C20.3349 36.0004 21.583 34.7774 21.583 33.2712C21.583 31.7618 20.3349 30.54 18.7955 30.54Z" fill="white"/>
<path d="M34.008 17.2529C32.9089 17.2529 32.0182 18.1252 32.0182 19.203C32.0182 20.2808 32.9089 21.1529 34.008 21.1529C35.1082 21.1529 36 20.2808 36 19.203C36 18.1252 35.1082 17.2529 34.008 17.2529Z" fill="white"/>
<path d="M27.8639 28.086C26.9318 28.9988 26.9318 30.4809 27.8639 31.395C28.7972 32.3091 30.3086 32.3091 31.243 31.395C32.1751 30.4809 32.1751 28.999 31.243 28.086C30.3085 27.1719 28.7972 27.1719 27.8639 28.086Z" fill="white"/>
<path d="M29.7058 10.0751C30.5863 10.0751 31.299 9.37741 31.299 8.515C31.299 7.65365 30.5863 6.95486 29.7058 6.95606C28.8274 6.95606 28.1126 7.65365 28.1137 8.515C28.1137 9.37741 28.8274 10.0751 29.7058 10.0751Z" fill="white"/>
</svg>
