<svg width="50" height="50" viewBox="0 0 50 50" fill="none" xmlns="http://www.w3.org/2000/svg">
<path d="M28.1263 45.8334V37.5001M4.16797 32.2918V5.41675C4.16797 4.72639 4.72761 4.16675 5.41797 4.16675H44.5846C45.2751 4.16675 45.8346 4.72639 45.8346 5.41675V32.2918H4.16797ZM4.16797 32.2918V36.2501C4.16797 36.9405 4.72761 37.5001 5.41797 37.5001H44.5846C45.2751 37.5001 45.8346 36.9405 45.8346 36.2501V32.2918H4.16797ZM4.16797 32.2918H45.8346H4.16797ZM18.7513 45.8334H21.8763H18.7513ZM21.8763 45.8334V37.5001V45.8334ZM21.8763 45.8334H28.1263H21.8763ZM28.1263 45.8334H31.2513H28.1263Z" stroke="#9FAFFF" stroke-width="1.2" stroke-linecap="round" stroke-linejoin="round"/>
<path d="M28.4729 18.3612H22.2229C21.8393 18.3612 21.5284 18.6721 21.5284 19.0556V26.463M21.5284 32.2501H28.4729H21.5284ZM21.5284 32.2501V26.463V32.2501ZM21.5284 32.2501H15.2784C14.8949 32.2501 14.584 31.9392 14.584 31.5556V27.1575C14.584 26.7739 14.8949 26.463 15.2784 26.463H21.5284V32.2501ZM28.4729 32.2501V18.3612V32.2501ZM28.4729 32.2501H34.7229C35.1064 32.2501 35.4173 31.9392 35.4173 31.5556V12.1112C35.4173 11.7277 35.1064 11.4167 34.7229 11.4167H29.1673C28.7838 11.4167 28.4729 11.7277 28.4729 12.1112V18.3612V32.2501Z" stroke="#9FAFFF" stroke-width="1.2"/>
</svg>
