<svg width="24" height="24" viewBox="0 0 24 24" fill="none" xmlns="http://www.w3.org/2000/svg">
<path d="M18.2222 11H5.77778C4.79594 11 4 11.7959 4 12.7778V19C4 19.9818 4.79594 20.7778 5.77778 20.7778H18.2222C19.2041 20.7778 20 19.9818 20 19V12.7778C20 11.7959 19.2041 11 18.2222 11Z" stroke="#A3A1B1" stroke-width="1.6" stroke-linecap="round" stroke-linejoin="round"/>
<path d="M7.55469 11V7.44444C7.55469 6.2657 8.02879 5.13524 8.87271 4.30175C9.71662 3.46825 10.8612 3 12.0547 3C13.2482 3 14.3928 3.46825 15.2367 4.30175C16.0806 5.13524 16.5547 6.2657 16.5547 7.44444V11" stroke="#A3A1B1" stroke-width="1.6" stroke-linecap="round" stroke-linejoin="round"/>
<path d="M12 14.5557V17.1557" stroke="#A3A1B1" stroke-width="2" stroke-linecap="round" stroke-linejoin="round"/>
</svg>
