<svg width="300" height="140" viewBox="0 0 300 140" fill="none" xmlns="http://www.w3.org/2000/svg">
<g clip-path="url(#clip0_1493_157206)">
<path d="M50 43.4159C58.0723 43.4159 65.8694 42.8614 73.5622 43.5546C83.2862 44.4302 88.0403 50.5525 87.9585 60.4911C87.8841 70.0064 82.5125 76.3257 73.2126 77.4275C69.9464 77.8143 66.5985 77.4859 62.8264 77.4859V94.7362H50V43.4159ZM62.8562 66.8103C66.9333 66.4601 71.4344 68.0143 73.4134 63.7674C74.3583 61.7316 74.1426 58.2582 72.9224 56.3828C70.6235 52.8365 66.4869 54.1499 62.8562 54.1134V66.8103Z" fill="#3D3C42"/>
<path d="M108.998 43.0437C112.435 43.0437 115.865 42.8905 119.258 43.1824C119.898 43.2335 120.828 45.065 120.85 46.0866C120.984 53.9455 120.924 61.8045 120.924 69.6707C120.924 70.9769 120.924 72.2758 120.924 73.8227C122.338 73.9322 123.454 74.2314 124.481 74.0562C130.641 72.9763 134.554 75.4792 137.627 80.7039C140.432 85.4688 144.137 89.7303 147.976 94.9404C142.812 94.9404 138.453 95.0718 134.108 94.831C133.193 94.7799 132.196 93.4737 131.519 92.547C128.238 88.0593 125.053 83.4986 120.969 79.1277V94.8528H109.005V43.0437H108.998Z" fill="#3D3C42"/>
<path d="M216.915 79.6604H192.222C192.051 83.0244 192.988 85.5783 195.912 86.7969C200.331 88.6358 204.111 87.3515 207.213 83.4549C209.81 85.0675 212.272 86.5926 214.653 88.0666C213.619 94.2107 202.214 98.2533 192.579 95.5534C182.721 92.7951 177.572 82.696 180.407 71.6118C182.84 62.0891 192.594 56.7477 203.389 59.0243C212.793 61.0091 218.619 69.6416 216.915 79.6604ZM192.519 72.0496H205.792C204.743 68.3281 202.333 66.7665 198.962 66.7665C195.666 66.7665 193.42 68.3865 192.512 72.0496H192.519Z" fill="#3D3C42"/>
<path d="M148.259 92.1821C149.74 89.1611 151.057 86.4831 152.396 83.7467C154.948 84.7245 157.18 85.7242 159.501 86.4174C160.751 86.7896 162.269 86.9939 163.467 86.6437C164.419 86.3664 165.475 85.2061 165.706 84.2648C165.847 83.6737 164.694 82.4041 163.853 82.0392C161.726 81.1052 159.412 80.6017 157.239 79.7479C153.415 78.2447 150.796 75.7054 150.61 71.4147C150.417 66.8321 152.113 63.1544 156.198 60.6953C161.287 57.6305 169.768 57.6305 176.546 60.885C175.363 63.4171 174.18 65.9638 173.042 68.4083C170.468 67.9267 168.31 67.2189 166.16 67.2481C164.992 67.2627 163.846 68.5251 162.685 69.2256C163.563 70.0866 164.307 71.1885 165.349 71.7504C166.621 72.429 168.161 72.6114 169.567 73.0711C175.296 74.9684 178.101 78.2374 178.227 83.0973C178.361 88.2709 175.184 93.0432 170.021 94.9185C162.551 97.633 155.491 96.3925 148.252 92.1821H148.259Z" fill="#3D3C42"/>
<path d="M232.583 94.6193C232.085 94.8018 231.973 94.8747 231.854 94.8893C224.399 95.478 220.672 92.1651 220.672 84.9507C220.672 72.4947 220.672 60.0313 220.672 47.5752V43.3137H232.583V94.6193Z" fill="#3D3C42"/>
<path d="M91.5586 59.8197H103.202V94.7872H91.5586V59.8197Z" fill="#3D3C42"/>
<path d="M238.334 94.7799V59.8197H250V94.7799H238.334Z" fill="#3D3C42"/>
<path d="M132.828 71.7358V59.7905H144.873V71.7358H132.828Z" fill="#3D3C42"/>
<path d="M91.6113 43.1752H103.151V54.8213H91.6113V43.1752Z" fill="#3D3C42"/>
<path d="M249.999 43.2992V54.8212H238.363V43.2992H249.999Z" fill="#3D3C42"/>
</g>
<defs>
<clipPath id="clip0_1493_157206">
<rect width="200" height="53.4072" fill="white" transform="translate(50 43)"/>
</clipPath>
</defs>
</svg>
