<svg width="24" height="24" viewBox="0 0 24 24" fill="none" xmlns="http://www.w3.org/2000/svg">
<circle cx="12" cy="12" r="10" fill="#CFCEDC"/>
<path d="M15.1501 8.00735L8.00723 15.1502C7.77477 15.3827 7.77477 15.7595 8.00723 15.992C8.23968 16.2245 8.61657 16.2245 8.84902 15.992L15.9919 8.84914C16.2243 8.61669 16.2243 8.2398 15.9919 8.00735C15.7594 7.77489 15.3825 7.77489 15.1501 8.00735Z" fill="white"/>
<path d="M8.00723 8.84914L15.1501 15.992C15.3825 16.2245 15.7594 16.2245 15.9919 15.992C16.2243 15.7595 16.2243 15.3827 15.9919 15.1502L8.84902 8.00735C8.61657 7.77489 8.23968 7.77489 8.00723 8.00735C7.77477 8.2398 7.77477 8.61669 8.00723 8.84914Z" fill="white"/>
</svg>
