<svg width="220" height="120" viewBox="0 0 220 120" fill="none" xmlns="http://www.w3.org/2000/svg">
<metadata><?xpacket begin="﻿" id="W5M0MpCehiHzreSzNTczkc9d"?>
<x:xmpmeta xmlns:x="adobe:ns:meta/" x:xmptk="Adobe XMP Core 9.1-c001 79.a8d4753, 2023/03/23-08:56:37        ">
   <rdf:RDF xmlns:rdf="http://www.w3.org/1999/02/22-rdf-syntax-ns#">
      <rdf:Description rdf:about=""
            xmlns:xmp="http://ns.adobe.com/xap/1.0/"
            xmlns:xmpMM="http://ns.adobe.com/xap/1.0/mm/"
            xmlns:stEvt="http://ns.adobe.com/xap/1.0/sType/ResourceEvent#">
         <xmp:Rating>4</xmp:Rating>
         <xmp:MetadataDate>2023-12-07T15:02:38+09:00</xmp:MetadataDate>
         <xmpMM:InstanceID>xmp.iid:b3f1d563-59aa-444b-8c86-b823bcd90c1b</xmpMM:InstanceID>
         <xmpMM:DocumentID>xmp.did:b3f1d563-59aa-444b-8c86-b823bcd90c1b</xmpMM:DocumentID>
         <xmpMM:OriginalDocumentID>xmp.did:b3f1d563-59aa-444b-8c86-b823bcd90c1b</xmpMM:OriginalDocumentID>
         <xmpMM:History>
            <rdf:Seq>
               <rdf:li>
                  <rdf:Description>
                     <stEvt:action>saved</stEvt:action>
                     <stEvt:instanceID>xmp.iid:b3f1d563-59aa-444b-8c86-b823bcd90c1b</stEvt:instanceID>
                     <stEvt:when>2023-12-07T15:02:38+09:00</stEvt:when>
                     <stEvt:softwareAgent>Adobe Bridge 2024</stEvt:softwareAgent>
                     <stEvt:changed>/metadata</stEvt:changed>
                  </rdf:Description>
               </rdf:li>
            </rdf:Seq>
         </xmpMM:History>
      </rdf:Description>
   </rdf:RDF>
</x:xmpmeta>
                                                                                                    
                                                                                                    
                                                                                                    
                                                                                                    
                                                                                                    
                                                                                                    
                                                                                                    
                                                                                                    
                                                                                                    
                                                                                                    
                                                                                                    
                                                                                                    
                                                                                                    
                                                                                                    
                                                                                                    
                                                                                                    
                                                                                                    
                                                                                                    
                                                                                                    
                                                                                                    
                           
<?xpacket end="w"?></metadata>
<rect x="0.5" y="0.5" width="219" height="119" rx="7.5" fill="#F0EFF6" stroke="#E0DFEA"/>
<circle cx="109.5" cy="46.9706" r="12" transform="rotate(45 109.5 46.9706)" fill="#A3A1B1"/>
<path d="M115.56 46.2552L103.438 46.2552C103.044 46.2552 102.724 46.575 102.724 46.9695C102.724 47.364 103.044 47.6838 103.438 47.6838L115.56 47.6838C115.954 47.6838 116.274 47.364 116.274 46.9695C116.274 46.575 115.954 46.2552 115.56 46.2552Z" fill="white"/>
<path d="M108.785 40.9086L108.785 53.0304C108.785 53.4249 109.105 53.7447 109.499 53.7447C109.894 53.7447 110.213 53.4249 110.213 53.0304L110.213 40.9086C110.213 40.5141 109.894 40.1943 109.499 40.1943C109.105 40.1943 108.785 40.5141 108.785 40.9086Z" fill="white"/>
<path d="M89.902 72.906C89.902 76.658 88.866 79.892 84.302 82.188L83.504 81.04C85.646 79.962 86.934 78.702 87.648 77.204L83.798 77.582L83.602 76.28L88.096 76C88.264 75.412 88.362 74.782 88.418 74.11H84.232V72.906H89.902ZM91.638 84.106V71.66H93.15V76.546H94.998V77.792H93.15V84.106H91.638ZM97.0843 72.738H105.624V73.97H98.5683V77.512H105.75V78.716H97.0843V72.738ZM95.7123 82.538V81.292H106.982V82.538H95.7123ZM111.175 79.15H122.431V80.382H117.545V84.134H116.047V80.382H111.175V79.15ZM111.805 77.204C114.269 76.896 115.893 75.622 116.033 74.348H112.225V73.144H116.047V71.688H117.545V73.144H121.381V74.348H117.573C117.713 75.594 119.337 76.896 121.773 77.204L121.241 78.394C119.197 78.142 117.601 77.218 116.803 76C116.005 77.232 114.395 78.128 112.337 78.394L111.805 77.204ZM131.574 71.66H133.086V76.546H134.934V77.792H133.086V84.106H131.574V71.66ZM123.37 80.718C126.38 79.192 128.004 77.05 128.298 74.194H124.014V72.976H129.824C129.824 76.63 128.312 79.822 124.224 81.866L123.37 80.718Z" fill="#A3A1B1"/>
</svg>
