<svg width="51" height="24" viewBox="0 0 51 24" fill="none" xmlns="http://www.w3.org/2000/svg">
<path d="M7.37334 8.684H10.0893V5.786H11.1393V14.956H10.0893V9.566H7.37334V8.684ZM1.10134 12.338C2.89334 11.652 4.18134 9.93 4.18134 8.04V6.5H5.21734V8.068C5.21734 9.804 6.47734 11.414 8.21334 12.072L7.65334 12.884C6.30934 12.352 5.24534 11.274 4.72734 9.93C4.20934 11.414 3.08934 12.59 1.64734 13.178L1.10134 12.338ZM3.28534 17.742V13.92H4.33534V16.874H11.4333V17.742H3.28534ZM13.8697 6.668H18.5737V7.536H14.8777V9.118H18.4477V9.944H14.8777V11.666C16.6697 11.666 17.7757 11.596 19.0777 11.344L19.1897 12.198C17.7757 12.478 16.6137 12.534 14.6397 12.534H13.8697V6.668ZM15.4377 14.718V13.85H23.6277V18.022H22.5917V14.718H15.4377ZM19.9177 13.122V6.01H20.9117V8.992H22.6337V5.772H23.6277V13.192H22.6337V9.86H20.9117V13.122H19.9177Z" fill="#8C8A9A"/>
<path d="M45 9L39.0214 14.9999" stroke="#8C8A9A" stroke-width="1.6" stroke-linecap="square"/>
<path d="M32.9999 9L38.9786 14.9999" stroke="#8C8A9A" stroke-width="1.6" stroke-linecap="square"/>
</svg>
