<svg width="51" height="24" viewBox="0 0 51 24" fill="none" xmlns="http://www.w3.org/2000/svg">
<path d="M9.54334 5.772H10.5933V8.67H12.4133V9.552H10.5933V12.66H9.54334V5.772ZM1.68934 11.946V6.57H7.06534V7.424H2.72534V11.064C5.17534 11.064 6.57534 10.98 8.19934 10.658L8.32534 11.512C6.61734 11.848 5.17534 11.946 2.62734 11.946H1.68934ZM2.97734 17.854V13.36H10.6913V14.228H4.02734V17H10.9293V17.854H2.97734ZM22.2977 5.772H23.3477V18.022H22.2977V5.772ZM13.4777 14.872C16.7817 13.29 18.4477 10.896 18.6717 7.956H14.0237V7.088H19.7357C19.7357 10.616 18.1117 13.724 14.0377 15.712L13.4777 14.872Z" fill="#5D45FF"/>
<path d="M33 15L38.9786 9.0001" stroke="#5D45FF" stroke-width="1.6" stroke-linecap="square"/>
<path d="M45 15L39.0214 9.00009" stroke="#5D45FF" stroke-width="1.6" stroke-linecap="square"/>
</svg>
